<svg id="Logo_1" data-name="Logo 1" xmlns="http://www.w3.org/2000/svg" viewBox="0 0 1751.7 398.96"><defs><style>.cls-1,.cls-5,.cls-6{fill:#214791;}.cls-2{fill:#3dc3eb;}.cls-3,.cls-7{fill:#7ebd62;}.cls-4{fill:#00a65c;}.cls-5{font-size:161.71px;letter-spacing:0.03em;}.cls-5,.cls-6{font-family:Eurofighter;}.cls-6{font-size:161.71px;letter-spacing:0.03em;}.cls-7{font-size:135.47px;font-family:Assistant-Light, Assistant;font-weight:300;}.cls-8{letter-spacing:-0.01em;}</style></defs><title>Logo 1 Flat</title><path class="cls-1" d="M258,351.83H106.31a19.73,19.73,0,0,0-19.73,19.74V523.26A19.73,19.73,0,0,0,106.31,543H258a19.73,19.73,0,0,0,19.74-19.73V371.57A19.74,19.74,0,0,0,258,351.83ZM235.28,462H192v43.29H172.32V462H129V442.36h43.28V399.08H192v43.28h43.28Z" transform="translate(-86.58 -351.83)"/><path class="cls-2" d="M474.79,351.83H323.1a19.74,19.74,0,0,0-19.74,19.74V523.26A19.73,19.73,0,0,0,323.1,543H474.79a19.73,19.73,0,0,0,19.73-19.73V371.57A19.73,19.73,0,0,0,474.79,351.83ZM415.42,469a12,12,0,0,1,.7,4v10.35a12,12,0,0,1-12,12H393.77a12,12,0,0,1-12-12V473a12,12,0,0,1,.7-4,32.27,32.27,0,1,1,32.95,0Z" transform="translate(-86.58 -351.83)"/><path class="cls-3" d="M210.47,694.66a12.16,12.16,0,0,0-2.52-5.54,6.18,6.18,0,0,0-5.47-2.18,8.5,8.5,0,0,0-4.38,2.77c-2.88,2.95-7.18,8.87-7.87,14.14,4.86,2.13,10,4.07,15.32,4.33a5.1,5.1,0,0,0,3.66-.85,5,5,0,0,0,1.32-2.81A24.08,24.08,0,0,0,210.47,694.66Zm0,0a12.16,12.16,0,0,0-2.52-5.54,6.18,6.18,0,0,0-5.47-2.18,8.5,8.5,0,0,0-4.38,2.77c-2.88,2.95-7.18,8.87-7.87,14.14,4.86,2.13,10,4.07,15.32,4.33a5.1,5.1,0,0,0,3.66-.85,5,5,0,0,0,1.32-2.81A24.08,24.08,0,0,0,210.47,694.66Zm-44.86-55.41c0-3.33-.77-6.83-1.14-10.14-.16-1.46-.54-2,.37-2.43-.78-1.31-.92-3.28-1.29-4.72a87,87,0,0,0-3.39-10.82c-1.65-4.11-3.57-8.11-5.6-12-1.49,4.19-2.87,8.43-4,12.75A86,86,0,0,0,148.67,623a23.34,23.34,0,0,1-.54,4.53,3.42,3.42,0,0,1,1,.74c1.68,1.7,2,5.1,2,7.26,0,3.89-.87,8.72,2.23,11.75a5.69,5.69,0,0,0,4.43,1.45,9.79,9.79,0,0,0,4.46-1.67,7.38,7.38,0,0,0,3.2-3.7A9.53,9.53,0,0,0,165.61,639.25Zm44.86,55.41a12.16,12.16,0,0,0-2.52-5.54,6.18,6.18,0,0,0-5.47-2.18,8.5,8.5,0,0,0-4.38,2.77c-2.88,2.95-7.18,8.87-7.87,14.14,4.86,2.13,10,4.07,15.32,4.33a5.1,5.1,0,0,0,3.66-.85,5,5,0,0,0,1.32-2.81A24.08,24.08,0,0,0,210.47,694.66Zm0,0a12.16,12.16,0,0,0-2.52-5.54,6.18,6.18,0,0,0-5.47-2.18,8.5,8.5,0,0,0-4.38,2.77c-2.88,2.95-7.18,8.87-7.87,14.14,4.86,2.13,10,4.07,15.32,4.33a5.1,5.1,0,0,0,3.66-.85,5,5,0,0,0,1.32-2.81A24.08,24.08,0,0,0,210.47,694.66Zm-44.86-55.41c0-3.33-.77-6.83-1.14-10.14-.16-1.46-.54-2,.37-2.43-.78-1.31-.92-3.28-1.29-4.72a87,87,0,0,0-3.39-10.82c-1.65-4.11-3.57-8.11-5.6-12-1.49,4.19-2.87,8.43-4,12.75A86,86,0,0,0,148.67,623a23.34,23.34,0,0,1-.54,4.53,3.42,3.42,0,0,1,1,.74c1.68,1.7,2,5.1,2,7.26,0,3.89-.87,8.72,2.23,11.75a5.69,5.69,0,0,0,4.43,1.45,9.79,9.79,0,0,0,4.46-1.67,7.38,7.38,0,0,0,3.2-3.7A9.53,9.53,0,0,0,165.61,639.25Zm44.86,55.41a12.16,12.16,0,0,0-2.52-5.54,6.18,6.18,0,0,0-5.47-2.18,8.5,8.5,0,0,0-4.38,2.77c-2.88,2.95-7.18,8.87-7.87,14.14,4.86,2.13,10,4.07,15.32,4.33a5.1,5.1,0,0,0,3.66-.85,5,5,0,0,0,1.32-2.81A24.08,24.08,0,0,0,210.47,694.66Zm0,0a12.16,12.16,0,0,0-2.52-5.54,6.18,6.18,0,0,0-5.47-2.18,8.5,8.5,0,0,0-4.38,2.77c-2.88,2.95-7.18,8.87-7.87,14.14,4.86,2.13,10,4.07,15.32,4.33a5.1,5.1,0,0,0,3.66-.85,5,5,0,0,0,1.32-2.81A24.08,24.08,0,0,0,210.47,694.66Zm-44.86-55.41c0-3.33-.77-6.83-1.14-10.14-.16-1.46-.54-2,.37-2.43-.78-1.31-.92-3.28-1.29-4.72a87,87,0,0,0-3.39-10.82c-1.65-4.11-3.57-8.11-5.6-12-1.49,4.19-2.87,8.43-4,12.75A86,86,0,0,0,148.67,623a23.34,23.34,0,0,1-.54,4.53,3.42,3.42,0,0,1,1,.74c1.68,1.7,2,5.1,2,7.26,0,3.89-.87,8.72,2.23,11.75a5.69,5.69,0,0,0,4.43,1.45,9.79,9.79,0,0,0,4.46-1.67,7.38,7.38,0,0,0,3.2-3.7A9.53,9.53,0,0,0,165.61,639.25Zm0,0c0-3.33-.77-6.83-1.14-10.14-.16-1.46-.54-2,.37-2.43-.78-1.31-.92-3.28-1.29-4.72a87,87,0,0,0-3.39-10.82c-1.65-4.11-3.57-8.11-5.6-12-1.49,4.19-2.87,8.43-4,12.75A86,86,0,0,0,148.67,623a23.34,23.34,0,0,1-.54,4.53,3.42,3.42,0,0,1,1,.74c1.68,1.7,2,5.1,2,7.26,0,3.89-.87,8.72,2.23,11.75a5.69,5.69,0,0,0,4.43,1.45,9.79,9.79,0,0,0,4.46-1.67,7.38,7.38,0,0,0,3.2-3.7A9.53,9.53,0,0,0,165.61,639.25Zm44.86,55.41a12.16,12.16,0,0,0-2.52-5.54,6.18,6.18,0,0,0-5.47-2.18,8.5,8.5,0,0,0-4.38,2.77c-2.88,2.95-7.18,8.87-7.87,14.14,4.86,2.13,10,4.07,15.32,4.33a5.1,5.1,0,0,0,3.66-.85,5,5,0,0,0,1.32-2.81A24.08,24.08,0,0,0,210.47,694.66Zm0,0a12.16,12.16,0,0,0-2.52-5.54,6.18,6.18,0,0,0-5.47-2.18,8.5,8.5,0,0,0-4.38,2.77c-2.88,2.95-7.18,8.87-7.87,14.14,4.86,2.13,10,4.07,15.32,4.33a5.1,5.1,0,0,0,3.66-.85,5,5,0,0,0,1.32-2.81A24.08,24.08,0,0,0,210.47,694.66Zm-44.86-55.41c0-3.33-.77-6.83-1.14-10.14-.16-1.46-.54-2,.37-2.43-.78-1.31-.92-3.28-1.29-4.72a87,87,0,0,0-3.39-10.82c-1.65-4.11-3.57-8.11-5.6-12-1.49,4.19-2.87,8.43-4,12.75A86,86,0,0,0,148.67,623a23.34,23.34,0,0,1-.54,4.53,3.42,3.42,0,0,1,1,.74c1.68,1.7,2,5.1,2,7.26,0,3.89-.87,8.72,2.23,11.75a5.69,5.69,0,0,0,4.43,1.45,9.79,9.79,0,0,0,4.46-1.67,7.38,7.38,0,0,0,3.2-3.7A9.53,9.53,0,0,0,165.61,639.25Zm0,0c0-3.33-.77-6.83-1.14-10.14-.16-1.46-.54-2,.37-2.43-.78-1.31-.92-3.28-1.29-4.72a87,87,0,0,0-3.39-10.82c-1.65-4.11-3.57-8.11-5.6-12-1.49,4.19-2.87,8.43-4,12.75A86,86,0,0,0,148.67,623a23.34,23.34,0,0,1-.54,4.53,3.42,3.42,0,0,1,1,.74c1.68,1.7,2,5.1,2,7.26,0,3.89-.87,8.72,2.23,11.75a5.69,5.69,0,0,0,4.43,1.45,9.79,9.79,0,0,0,4.46-1.67,7.38,7.38,0,0,0,3.2-3.7A9.53,9.53,0,0,0,165.61,639.25Zm44.86,55.41a12.16,12.16,0,0,0-2.52-5.54,6.18,6.18,0,0,0-5.47-2.18,8.5,8.5,0,0,0-4.38,2.77c-2.88,2.95-7.18,8.87-7.87,14.14,4.86,2.13,10,4.07,15.32,4.33a5.1,5.1,0,0,0,3.66-.85,5,5,0,0,0,1.32-2.81A24.08,24.08,0,0,0,210.47,694.66Zm0,0a12.16,12.16,0,0,0-2.52-5.54,6.18,6.18,0,0,0-5.47-2.18,8.5,8.5,0,0,0-4.38,2.77c-2.88,2.95-7.18,8.87-7.87,14.14,4.86,2.13,10,4.07,15.32,4.33a5.1,5.1,0,0,0,3.66-.85,5,5,0,0,0,1.32-2.81A24.08,24.08,0,0,0,210.47,694.66Zm-44.86-55.41c0-3.33-.77-6.83-1.14-10.14-.16-1.46-.54-2,.37-2.43-.78-1.31-.92-3.28-1.29-4.72a87,87,0,0,0-3.39-10.82c-1.65-4.11-3.57-8.11-5.6-12-1.49,4.19-2.87,8.43-4,12.75A86,86,0,0,0,148.67,623a23.34,23.34,0,0,1-.54,4.53,3.42,3.42,0,0,1,1,.74c1.68,1.7,2,5.1,2,7.26,0,3.89-.87,8.72,2.23,11.75a5.69,5.69,0,0,0,4.43,1.45,9.79,9.79,0,0,0,4.46-1.67,7.38,7.38,0,0,0,3.2-3.7A9.53,9.53,0,0,0,165.61,639.25Zm0,0c0-3.33-.77-6.83-1.14-10.14-.16-1.46-.54-2,.37-2.43-.78-1.31-.92-3.28-1.29-4.72a87,87,0,0,0-3.39-10.82c-1.65-4.11-3.57-8.11-5.6-12-1.49,4.19-2.87,8.43-4,12.75A86,86,0,0,0,148.67,623a23.34,23.34,0,0,1-.54,4.53,3.42,3.42,0,0,1,1,.74c1.68,1.7,2,5.1,2,7.26,0,3.89-.87,8.72,2.23,11.75a5.69,5.69,0,0,0,4.43,1.45,9.79,9.79,0,0,0,4.46-1.67,7.38,7.38,0,0,0,3.2-3.7A9.53,9.53,0,0,0,165.61,639.25Zm44.86,55.41a12.16,12.16,0,0,0-2.52-5.54,6.18,6.18,0,0,0-5.47-2.18,8.5,8.5,0,0,0-4.38,2.77c-2.88,2.95-7.18,8.87-7.87,14.14,4.86,2.13,10,4.07,15.32,4.33a5.1,5.1,0,0,0,3.66-.85,5,5,0,0,0,1.32-2.81A24.08,24.08,0,0,0,210.47,694.66Zm0,0a12.16,12.16,0,0,0-2.52-5.54,6.18,6.18,0,0,0-5.47-2.18,8.5,8.5,0,0,0-4.38,2.77c-2.88,2.95-7.18,8.87-7.87,14.14,4.86,2.13,10,4.07,15.32,4.33a5.1,5.1,0,0,0,3.66-.85,5,5,0,0,0,1.32-2.81A24.08,24.08,0,0,0,210.47,694.66Zm-44.86-55.41c0-3.33-.77-6.83-1.14-10.14-.16-1.46-.54-2,.37-2.43-.78-1.31-.92-3.28-1.29-4.72a87,87,0,0,0-3.39-10.82c-1.65-4.11-3.57-8.11-5.6-12-1.49,4.19-2.87,8.43-4,12.75A86,86,0,0,0,148.67,623a23.34,23.34,0,0,1-.54,4.53,3.42,3.42,0,0,1,1,.74c1.68,1.7,2,5.1,2,7.26,0,3.89-.87,8.72,2.23,11.75a5.69,5.69,0,0,0,4.43,1.45,9.79,9.79,0,0,0,4.46-1.67,7.38,7.38,0,0,0,3.2-3.7A9.53,9.53,0,0,0,165.61,639.25Zm0,0c0-3.33-.77-6.83-1.14-10.14-.16-1.46-.54-2,.37-2.43-.78-1.31-.92-3.28-1.29-4.72a87,87,0,0,0-3.39-10.82c-1.65-4.11-3.57-8.11-5.6-12-1.49,4.19-2.87,8.43-4,12.75A86,86,0,0,0,148.67,623a23.34,23.34,0,0,1-.54,4.53,3.42,3.42,0,0,1,1,.74c1.68,1.7,2,5.1,2,7.26,0,3.89-.87,8.72,2.23,11.75a5.69,5.69,0,0,0,4.43,1.45,9.79,9.79,0,0,0,4.46-1.67,7.38,7.38,0,0,0,3.2-3.7A9.53,9.53,0,0,0,165.61,639.25Zm44.86,55.41a12.16,12.16,0,0,0-2.52-5.54,6.18,6.18,0,0,0-5.47-2.18,8.5,8.5,0,0,0-4.38,2.77c-2.88,2.95-7.18,8.87-7.87,14.14,4.86,2.13,10,4.07,15.32,4.33a5.1,5.1,0,0,0,3.66-.85,5,5,0,0,0,1.32-2.81A24.08,24.08,0,0,0,210.47,694.66Zm0,0a12.16,12.16,0,0,0-2.52-5.54,6.18,6.18,0,0,0-5.47-2.18,8.5,8.5,0,0,0-4.38,2.77c-2.88,2.95-7.18,8.87-7.87,14.14,4.86,2.13,10,4.07,15.32,4.33a5.1,5.1,0,0,0,3.66-.85,5,5,0,0,0,1.32-2.81A24.08,24.08,0,0,0,210.47,694.66Zm-46-65.55c-.16-1.46-.54-2,.37-2.43-.78-1.31-.92-3.28-1.29-4.72a87,87,0,0,0-3.39-10.82c-1.65-4.11-3.57-8.11-5.6-12-1.49,4.19-2.87,8.43-4,12.75A86,86,0,0,0,148.67,623a23.34,23.34,0,0,1-.54,4.53,3.42,3.42,0,0,1,1,.74c1.68,1.7,2,5.1,2,7.26,0,3.89-.87,8.72,2.23,11.75a5.69,5.69,0,0,0,4.43,1.45,9.79,9.79,0,0,0,4.46-1.67,7.38,7.38,0,0,0,3.2-3.7,9.53,9.53,0,0,0,.13-4.12C165.61,635.92,164.84,632.42,164.47,629.11ZM258,559.63H106.31a19.73,19.73,0,0,0-19.73,19.73V731.05a19.73,19.73,0,0,0,19.73,19.74H258a19.74,19.74,0,0,0,19.74-19.74V579.36A19.73,19.73,0,0,0,258,559.63Zm-15.44,143.9c-.38,5.29-1.87,9.8-6.46,12.83-3.84,2.53-8.51,3.61-13,4.37a47.08,47.08,0,0,1-19.77-.66A33.65,33.65,0,0,1,192.68,715c-2.71-1.9-4.23-3.81-4.86-6.74a58.21,58.21,0,0,1-18.5-12.49,3.83,3.83,0,0,1-1-1.33l-.1,0a2.73,2.73,0,0,1-1.19-1,45.18,45.18,0,0,1-10.25-27.3c-.14-3.48.12-8.16-2.21-11a7.18,7.18,0,0,0-2.38-1.56c-3.95-2.08-6.39-6.33-7.37-10.69s-.68-8.89-.38-13.34c.11-1.62-.08-2,1.33-2.24.05-1.07.51-2.4.58-3.17q.45-4.54,1.26-9a114.82,114.82,0,0,1,4.61-17.32q.31-.91.66-1.83c-2.33-4.33-5.5-7.75-10.84-6.11-.64.19-1.83.91-2.86,1.32a.72.72,0,0,1,.09.2c.51,1.44-1,2-2.08,2.49-1.75.87-2.62,2-4.75,1.7-3.29-.51-2.55-3.29-.53-4.94a6.72,6.72,0,0,1,3.89-1.24,5,5,0,0,1,1.76.3,3.64,3.64,0,0,1,1.08-.93A11.4,11.4,0,0,1,145,587.2a10,10,0,0,1,4.92,1.36,14,14,0,0,1,4.29,4.44,14,14,0,0,1,3.64-4.91,9.94,9.94,0,0,1,4.69-2,11.45,11.45,0,0,1,6.42.69,5.89,5.89,0,0,1,.55.29,9.15,9.15,0,0,1,3.43.94,16.94,16.94,0,0,1,4.5,2.54.77.77,0,0,1,.19,1.34,5.4,5.4,0,0,1-2.76,2.07,5.07,5.07,0,0,1-3.82-1.17,18.49,18.49,0,0,1-2.42-2,3.17,3.17,0,0,1-.46-.51,2.12,2.12,0,0,1-.35-1.3,21.82,21.82,0,0,0-2.09-.66c-5.48-.9-8.17,2.87-9.91,7.43.3.56.59,1.12.87,1.67A115.57,115.57,0,0,1,163.51,614q1.41,4.34,2.44,8.78a22.12,22.12,0,0,1,1.06,3.51,2.28,2.28,0,0,1,1.08.12c1.2.64,1.6,4.21,1.9,5.39a35.55,35.55,0,0,1,1.15,7.09,19.49,19.49,0,0,1-.79,6.84,14.64,14.64,0,0,1-4.41,6.58c-1.57,1.34-3.17,2.38-3.76,4.49-1.87,6.72,0,15.18,2.24,21.57,1,2.73,1.35,5.67,2.86,8.18a61.46,61.46,0,0,0,5.91,7.46l-.39,0a88.73,88.73,0,0,0,14.75,8.6,23.27,23.27,0,0,1,7.33-15.11c3.35-3.07,8.11-5.14,12.43-3.78a11.11,11.11,0,0,1,6.28,5.6,18.91,18.91,0,0,1,1.85,8.36,14.65,14.65,0,0,1-1.83,8c-2.19,3.48-6.38,5.2-10.53,5.46-.43,0-.87,0-1.3,0a36.74,36.74,0,0,1-10.37-1.67,6.59,6.59,0,0,0,.59.74c6.14,6.69,17.65,6.47,25.85,5.55q5-.55,9.9-1.37c2.55-.42,5.76-.24,7.83-2,1.91-1.65,2.41-4.6,2.59-7,.72-9.61-2.38-19.28-7.64-27.35A63.91,63.91,0,0,0,219,665.06a10.27,10.27,0,1,1,2.94-3,59.44,59.44,0,0,1,13.56,14.26A43.23,43.23,0,0,1,242.56,703.53Zm-33.35,3.8a5,5,0,0,0,1.32-2.81,24.08,24.08,0,0,0-.06-9.86,12.16,12.16,0,0,0-2.52-5.54,6.18,6.18,0,0,0-5.47-2.18,8.5,8.5,0,0,0-4.38,2.77c-2.88,2.95-7.18,8.87-7.87,14.14,4.86,2.13,10,4.07,15.32,4.33A5.1,5.1,0,0,0,209.21,707.33Zm-43.73-64a9.53,9.53,0,0,0,.13-4.12c0-3.33-.77-6.83-1.14-10.14-.16-1.46-.54-2,.37-2.43-.78-1.31-.92-3.28-1.29-4.72a87,87,0,0,0-3.39-10.82c-1.65-4.11-3.57-8.11-5.6-12-1.49,4.19-2.87,8.43-4,12.75A86,86,0,0,0,148.67,623a23.34,23.34,0,0,1-.54,4.53,3.42,3.42,0,0,1,1,.74c1.68,1.7,2,5.1,2,7.26,0,3.89-.87,8.72,2.23,11.75a5.69,5.69,0,0,0,4.43,1.45,9.79,9.79,0,0,0,4.46-1.67A7.38,7.38,0,0,0,165.48,643.37Zm.13-4.12c0-3.33-.77-6.83-1.14-10.14-.16-1.46-.54-2,.37-2.43-.78-1.31-.92-3.28-1.29-4.72a87,87,0,0,0-3.39-10.82c-1.65-4.11-3.57-8.11-5.6-12-1.49,4.19-2.87,8.43-4,12.75A86,86,0,0,0,148.67,623a23.34,23.34,0,0,1-.54,4.53,3.42,3.42,0,0,1,1,.74c1.68,1.7,2,5.1,2,7.26,0,3.89-.87,8.72,2.23,11.75a5.69,5.69,0,0,0,4.43,1.45,9.79,9.79,0,0,0,4.46-1.67,7.38,7.38,0,0,0,3.2-3.7A9.53,9.53,0,0,0,165.61,639.25Zm44.86,55.41a12.16,12.16,0,0,0-2.52-5.54,6.18,6.18,0,0,0-5.47-2.18,8.5,8.5,0,0,0-4.38,2.77c-2.88,2.95-7.18,8.87-7.87,14.14,4.86,2.13,10,4.07,15.32,4.33a5.1,5.1,0,0,0,3.66-.85,5,5,0,0,0,1.32-2.81A24.08,24.08,0,0,0,210.47,694.66Zm0,0a12.16,12.16,0,0,0-2.52-5.54,6.18,6.18,0,0,0-5.47-2.18,8.5,8.5,0,0,0-4.38,2.77c-2.88,2.95-7.18,8.87-7.87,14.14,4.86,2.13,10,4.07,15.32,4.33a5.1,5.1,0,0,0,3.66-.85,5,5,0,0,0,1.32-2.81A24.08,24.08,0,0,0,210.47,694.66Zm-44.86-55.41c0-3.33-.77-6.83-1.14-10.14-.16-1.46-.54-2,.37-2.43-.78-1.31-.92-3.28-1.29-4.72a87,87,0,0,0-3.39-10.82c-1.65-4.11-3.57-8.11-5.6-12-1.49,4.19-2.87,8.43-4,12.75A86,86,0,0,0,148.67,623a23.34,23.34,0,0,1-.54,4.53,3.42,3.42,0,0,1,1,.74c1.68,1.7,2,5.1,2,7.26,0,3.89-.87,8.72,2.23,11.75a5.69,5.69,0,0,0,4.43,1.45,9.79,9.79,0,0,0,4.46-1.67,7.38,7.38,0,0,0,3.2-3.7A9.53,9.53,0,0,0,165.61,639.25Zm0,0c0-3.33-.77-6.83-1.14-10.14-.16-1.46-.54-2,.37-2.43-.78-1.31-.92-3.28-1.29-4.72a87,87,0,0,0-3.39-10.82c-1.65-4.11-3.57-8.11-5.6-12-1.49,4.19-2.87,8.43-4,12.75A86,86,0,0,0,148.67,623a23.34,23.34,0,0,1-.54,4.53,3.42,3.42,0,0,1,1,.74c1.68,1.7,2,5.1,2,7.26,0,3.89-.87,8.72,2.23,11.75a5.69,5.69,0,0,0,4.43,1.45,9.79,9.79,0,0,0,4.46-1.67,7.38,7.38,0,0,0,3.2-3.7A9.53,9.53,0,0,0,165.61,639.25Zm44.86,55.41a12.16,12.16,0,0,0-2.52-5.54,6.18,6.18,0,0,0-5.47-2.18,8.5,8.5,0,0,0-4.38,2.77c-2.88,2.95-7.18,8.87-7.87,14.14,4.86,2.13,10,4.07,15.32,4.33a5.1,5.1,0,0,0,3.66-.85,5,5,0,0,0,1.32-2.81A24.08,24.08,0,0,0,210.47,694.66Zm0,0a12.16,12.16,0,0,0-2.52-5.54,6.18,6.18,0,0,0-5.47-2.18,8.5,8.5,0,0,0-4.38,2.77c-2.88,2.95-7.18,8.87-7.87,14.14,4.86,2.13,10,4.07,15.32,4.33a5.1,5.1,0,0,0,3.66-.85,5,5,0,0,0,1.32-2.81A24.08,24.08,0,0,0,210.47,694.66Zm-44.86-55.41c0-3.33-.77-6.83-1.14-10.14-.16-1.46-.54-2,.37-2.43-.78-1.31-.92-3.28-1.29-4.72a87,87,0,0,0-3.39-10.82c-1.65-4.11-3.57-8.11-5.6-12-1.49,4.19-2.87,8.43-4,12.75A86,86,0,0,0,148.67,623a23.34,23.34,0,0,1-.54,4.53,3.42,3.42,0,0,1,1,.74c1.68,1.7,2,5.1,2,7.26,0,3.89-.87,8.72,2.23,11.75a5.69,5.69,0,0,0,4.43,1.45,9.79,9.79,0,0,0,4.46-1.67,7.38,7.38,0,0,0,3.2-3.7A9.53,9.53,0,0,0,165.61,639.25Zm0,0c0-3.33-.77-6.83-1.14-10.14-.16-1.46-.54-2,.37-2.43-.78-1.31-.92-3.28-1.29-4.72a87,87,0,0,0-3.39-10.82c-1.65-4.11-3.57-8.11-5.6-12-1.49,4.19-2.87,8.43-4,12.75A86,86,0,0,0,148.67,623a23.34,23.34,0,0,1-.54,4.53,3.42,3.42,0,0,1,1,.74c1.68,1.7,2,5.1,2,7.26,0,3.89-.87,8.72,2.23,11.75a5.69,5.69,0,0,0,4.43,1.45,9.79,9.79,0,0,0,4.46-1.67,7.38,7.38,0,0,0,3.2-3.7A9.53,9.53,0,0,0,165.61,639.25Zm44.86,55.41a12.16,12.16,0,0,0-2.52-5.54,6.18,6.18,0,0,0-5.47-2.18,8.5,8.5,0,0,0-4.38,2.77c-2.88,2.95-7.18,8.87-7.87,14.14,4.86,2.13,10,4.07,15.32,4.33a5.1,5.1,0,0,0,3.66-.85,5,5,0,0,0,1.32-2.81A24.08,24.08,0,0,0,210.47,694.66Zm0,0a12.16,12.16,0,0,0-2.52-5.54,6.18,6.18,0,0,0-5.47-2.18,8.5,8.5,0,0,0-4.38,2.77c-2.88,2.95-7.18,8.87-7.87,14.14,4.86,2.13,10,4.07,15.32,4.33a5.1,5.1,0,0,0,3.66-.85,5,5,0,0,0,1.32-2.81A24.08,24.08,0,0,0,210.47,694.66Zm-44.86-55.41c0-3.33-.77-6.83-1.14-10.14-.16-1.46-.54-2,.37-2.43-.78-1.31-.92-3.28-1.29-4.72a87,87,0,0,0-3.39-10.82c-1.65-4.11-3.57-8.11-5.6-12-1.49,4.19-2.87,8.43-4,12.75A86,86,0,0,0,148.67,623a23.34,23.34,0,0,1-.54,4.53,3.42,3.42,0,0,1,1,.74c1.68,1.7,2,5.1,2,7.26,0,3.89-.87,8.72,2.23,11.75a5.69,5.69,0,0,0,4.43,1.45,9.79,9.79,0,0,0,4.46-1.67,7.38,7.38,0,0,0,3.2-3.7A9.53,9.53,0,0,0,165.61,639.25Zm0,0c0-3.33-.77-6.83-1.14-10.14-.16-1.46-.54-2,.37-2.43-.78-1.31-.92-3.28-1.29-4.72a87,87,0,0,0-3.39-10.82c-1.65-4.11-3.57-8.11-5.6-12-1.49,4.19-2.87,8.43-4,12.75A86,86,0,0,0,148.67,623a23.34,23.34,0,0,1-.54,4.53,3.42,3.42,0,0,1,1,.74c1.68,1.7,2,5.1,2,7.26,0,3.89-.87,8.72,2.23,11.75a5.69,5.69,0,0,0,4.43,1.45,9.79,9.79,0,0,0,4.46-1.67,7.38,7.38,0,0,0,3.2-3.7A9.53,9.53,0,0,0,165.61,639.25Zm44.86,55.41a12.16,12.16,0,0,0-2.52-5.54,6.18,6.18,0,0,0-5.47-2.18,8.5,8.5,0,0,0-4.38,2.77c-2.88,2.95-7.18,8.87-7.87,14.14,4.86,2.13,10,4.07,15.32,4.33a5.1,5.1,0,0,0,3.66-.85,5,5,0,0,0,1.32-2.81A24.08,24.08,0,0,0,210.47,694.66Zm0,0a12.16,12.16,0,0,0-2.52-5.54,6.18,6.18,0,0,0-5.47-2.18,8.5,8.5,0,0,0-4.38,2.77c-2.88,2.95-7.18,8.87-7.87,14.14,4.86,2.13,10,4.07,15.32,4.33a5.1,5.1,0,0,0,3.66-.85,5,5,0,0,0,1.32-2.81A24.08,24.08,0,0,0,210.47,694.66Zm-44.86-55.41c0-3.33-.77-6.83-1.14-10.14-.16-1.46-.54-2,.37-2.43-.78-1.31-.92-3.28-1.29-4.72a87,87,0,0,0-3.39-10.82c-1.65-4.11-3.57-8.11-5.6-12-1.49,4.19-2.87,8.43-4,12.75A86,86,0,0,0,148.67,623a23.34,23.34,0,0,1-.54,4.53,3.42,3.42,0,0,1,1,.74c1.68,1.7,2,5.1,2,7.26,0,3.89-.87,8.72,2.23,11.75a5.69,5.69,0,0,0,4.43,1.45,9.79,9.79,0,0,0,4.46-1.67,7.38,7.38,0,0,0,3.2-3.7A9.53,9.53,0,0,0,165.61,639.25Zm44.86,55.41a12.16,12.16,0,0,0-2.52-5.54,6.18,6.18,0,0,0-5.47-2.18,8.5,8.5,0,0,0-4.38,2.77c-2.88,2.95-7.18,8.87-7.87,14.14,4.86,2.13,10,4.07,15.32,4.33a5.1,5.1,0,0,0,3.66-.85,5,5,0,0,0,1.32-2.81A24.08,24.08,0,0,0,210.47,694.66Zm0,0a12.16,12.16,0,0,0-2.52-5.54,6.18,6.18,0,0,0-5.47-2.18,8.5,8.5,0,0,0-4.38,2.77c-2.88,2.95-7.18,8.87-7.87,14.14,4.86,2.13,10,4.07,15.32,4.33a5.1,5.1,0,0,0,3.66-.85,5,5,0,0,0,1.32-2.81A24.08,24.08,0,0,0,210.47,694.66Zm-44.86-55.41c0-3.33-.77-6.83-1.14-10.14-.16-1.46-.54-2,.37-2.43-.78-1.31-.92-3.28-1.29-4.72a87,87,0,0,0-3.39-10.82c-1.65-4.11-3.57-8.11-5.6-12-1.49,4.19-2.87,8.43-4,12.75A86,86,0,0,0,148.67,623a23.34,23.34,0,0,1-.54,4.53,3.42,3.42,0,0,1,1,.74c1.68,1.7,2,5.1,2,7.26,0,3.89-.87,8.72,2.23,11.75a5.69,5.69,0,0,0,4.43,1.45,9.79,9.79,0,0,0,4.46-1.67,7.38,7.38,0,0,0,3.2-3.7A9.53,9.53,0,0,0,165.61,639.25Zm44.86,55.41a12.16,12.16,0,0,0-2.52-5.54,6.18,6.18,0,0,0-5.47-2.18,8.5,8.5,0,0,0-4.38,2.77c-2.88,2.95-7.18,8.87-7.87,14.14,4.86,2.13,10,4.07,15.32,4.33a5.1,5.1,0,0,0,3.66-.85,5,5,0,0,0,1.32-2.81A24.08,24.08,0,0,0,210.47,694.66Zm0,0a12.16,12.16,0,0,0-2.52-5.54,6.18,6.18,0,0,0-5.47-2.18,8.5,8.5,0,0,0-4.38,2.77c-2.88,2.95-7.18,8.87-7.87,14.14,4.86,2.13,10,4.07,15.32,4.33a5.1,5.1,0,0,0,3.66-.85,5,5,0,0,0,1.32-2.81A24.08,24.08,0,0,0,210.47,694.66Zm-44.86-55.41c0-3.33-.77-6.83-1.14-10.14-.16-1.46-.54-2,.37-2.43-.78-1.31-.92-3.28-1.29-4.72a87,87,0,0,0-3.39-10.82c-1.65-4.11-3.57-8.11-5.6-12-1.49,4.19-2.87,8.43-4,12.75A86,86,0,0,0,148.67,623a23.34,23.34,0,0,1-.54,4.53,3.42,3.42,0,0,1,1,.74c1.68,1.7,2,5.1,2,7.26,0,3.89-.87,8.72,2.23,11.75a5.69,5.69,0,0,0,4.43,1.45,9.79,9.79,0,0,0,4.46-1.67,7.38,7.38,0,0,0,3.2-3.7A9.53,9.53,0,0,0,165.61,639.25Z" transform="translate(-86.58 -351.83)"/><path class="cls-4" d="M474.79,559.63H323.1a19.73,19.73,0,0,0-19.74,19.73V731.05a19.74,19.74,0,0,0,19.74,19.74H474.79a19.73,19.73,0,0,0,19.73-19.74V579.36A19.73,19.73,0,0,0,474.79,559.63Zm-46.61,102-3.25-11-13,73.9h-5.68L389.6,612.47l-13.4,49.94-60.09-4.06,54.41-2,16.64-60.1h6.5L409.5,705.05l12.59-71.47,6.09-.4,4.46,21.92,49.14,3.25Z" transform="translate(-86.58 -351.83)"/><text class="cls-5" transform="translate(485.87 191.16)">borderline</text><text class="cls-6" transform="translate(463.35 191.16)">i</text><text class="cls-7" transform="translate(703.34 318.22)">Medi<tspan class="cls-8" x="267.28" y="0">c</tspan><tspan x="326.75" y="0">al G</tspan><tspan class="cls-8" x="535.5" y="0">r</tspan><tspan x="577.77" y="0">oup</tspan></text><path class="cls-3" d="M560.16,644.36h212.6c5.79,0,5.8-9,0-9H560.16c-5.79,0-5.8,9,0,9Z" transform="translate(-86.58 -351.83)"/><path class="cls-3" d="M1607.83,644.36h212.59c5.79,0,5.8-9,0-9H1607.83c-5.8,0-5.81,9,0,9Z" transform="translate(-86.58 -351.83)"/></svg>