<svg width="50" height="50" viewBox="0 0 50 50" fill="none" xmlns="http://www.w3.org/2000/svg">
<path d="M38.14 15.8823C36.3768 15.8823 34.9424 17.353 34.9424 19.1609C34.9424 20.9688 36.3768 22.4396 38.14 22.4396C39.9033 22.4396 41.3377 20.9688 41.3377 19.1609C41.3377 17.353 39.9033 15.8823 38.14 15.8823ZM38.14 21.1629C37.0634 21.1629 36.1875 20.2648 36.1875 19.1609C36.1875 18.0571 37.0634 17.159 38.14 17.159C39.2166 17.159 40.0925 18.0571 40.0925 19.1609C40.0925 20.2648 39.2167 21.1629 38.14 21.1629Z" fill="#F0F0F0"/>
<path d="M38.1408 20.0443C38.6166 20.0443 39.0023 19.6488 39.0023 19.1609C39.0023 18.6731 38.6166 18.2776 38.1408 18.2776C37.665 18.2776 37.2793 18.6731 37.2793 19.1609C37.2793 19.6488 37.665 20.0443 38.1408 20.0443Z" fill="#F0F0F0"/>
<path d="M7.56092 37.0765C5.79769 37.0765 4.36328 38.5473 4.36328 40.3552C4.36328 42.1631 5.79769 43.6338 7.56092 43.6338C9.32416 43.6338 10.7586 42.1631 10.7586 40.3552C10.7586 38.5473 9.32416 37.0765 7.56092 37.0765ZM7.56092 42.3571C6.48433 42.3571 5.60843 41.459 5.60843 40.3552C5.60843 39.2513 6.48433 38.3532 7.56092 38.3532C8.63752 38.3532 9.51342 39.2513 9.51342 40.3552C9.51342 41.459 8.63763 42.3571 7.56092 42.3571Z" fill="#F0F0F0"/>
<path d="M7.56075 41.2385C8.03655 41.2385 8.42227 40.843 8.42227 40.3552C8.42227 39.8673 8.03655 39.4718 7.56075 39.4718C7.08494 39.4718 6.69922 39.8673 6.69922 40.3552C6.69922 40.843 7.08494 41.2385 7.56075 41.2385Z" fill="#F0F0F0"/>
<path d="M16.4242 3.17816C14.661 3.17816 13.2266 4.64891 13.2266 6.45682C13.2266 8.26473 14.661 9.73548 16.4242 9.73548C18.1874 9.73548 19.6218 8.26473 19.6218 6.45682C19.6218 4.64891 18.1874 3.17816 16.4242 3.17816ZM16.4242 8.45879C15.3476 8.45879 14.4717 7.5607 14.4717 6.45682C14.4717 5.35295 15.3476 4.45485 16.4242 4.45485C17.5008 4.45485 18.3767 5.35295 18.3767 6.45682C18.3767 7.5607 17.5008 8.45879 16.4242 8.45879Z" fill="#F0F0F0"/>
<path d="M16.424 7.34016C16.8998 7.34016 17.2856 6.94467 17.2856 6.45681C17.2856 5.96895 16.8998 5.57346 16.424 5.57346C15.9482 5.57346 15.5625 5.96895 15.5625 6.45681C15.5625 6.94467 15.9482 7.34016 16.424 7.34016Z" fill="#F0F0F0"/>
<path d="M30.5734 36.632H24.1265C23.7826 36.632 23.5039 36.9177 23.5039 37.2703C23.5039 37.6229 23.7826 37.9087 24.1265 37.9087H30.5734C30.9173 37.9087 31.196 37.6229 31.196 37.2703C31.196 36.9177 30.9172 36.632 30.5734 36.632Z" fill="#F0F0F0"/>
<path d="M30.5734 39.7993H24.1265C23.7826 39.7993 23.5039 40.0851 23.5039 40.4377C23.5039 40.7903 23.7826 41.076 24.1265 41.076H30.5734C30.9173 41.076 31.196 40.7903 31.196 40.4377C31.196 40.0851 30.9172 39.7993 30.5734 39.7993Z" fill="#F0F0F0"/>
<path d="M30.5734 42.9668H24.1265C23.7826 42.9668 23.5039 43.2526 23.5039 43.6052C23.5039 43.9578 23.7826 44.2435 24.1265 44.2435H30.5734C30.9173 44.2435 31.196 43.9578 31.196 43.6052C31.196 43.2526 30.9172 42.9668 30.5734 42.9668Z" fill="#F0F0F0"/>
<path d="M48.3306 13.9092H42.8815V9.76332C42.8815 9.59399 42.8159 9.43162 42.6992 9.31196L33.7983 0.186977C33.6816 0.0673165 33.5232 0 33.3581 0H10.9645C10.6206 0 10.3419 0.285747 10.3419 0.638346V30.7102H0.622572C0.278686 30.7102 0 30.996 0 31.3486V49.3617C0 49.7143 0.278686 50 0.622572 50H35.4091C35.753 50 36.0316 49.7143 36.0316 49.3617V45.0698H42.2589C42.6028 45.0698 42.8815 44.784 42.8815 44.4314V24.4128H48.3306C49.2511 24.4128 50 23.6449 50 22.7011V15.621C50 14.6771 49.2512 13.9092 48.3306 13.9092ZM33.9808 2.17931L40.7558 9.12498H33.9808V2.17931ZM34.7865 48.7234H1.24514V31.9869H34.7865V48.7234ZM41.6364 43.7931H36.0316V31.3486C36.0316 30.996 35.753 30.7102 35.4091 30.7102H11.5871V1.27669H32.7356V9.76332C32.7356 10.1159 33.0143 10.4017 33.3582 10.4017H41.6364V13.9092H34.7099C33.7894 13.9092 33.0405 14.6771 33.0405 15.6209V22.701C33.0405 23.6448 33.7894 24.4127 34.7099 24.4127H41.6364V43.7931ZM48.7549 22.7011C48.7549 22.941 48.5646 23.1361 48.3306 23.1361H34.7099C34.4759 23.1361 34.2856 22.941 34.2856 22.7011V15.621C34.2856 15.3811 34.4759 15.186 34.7099 15.186H48.3306C48.5646 15.186 48.7549 15.3811 48.7549 15.621V22.7011Z" fill="#F0F0F0"/>
<path d="M46.691 17.4209H42.6616C42.3177 17.4209 42.0391 17.7067 42.0391 18.0593C42.0391 18.4119 42.3177 18.6976 42.6616 18.6976H46.691C47.0349 18.6976 47.3136 18.4119 47.3136 18.0593C47.3136 17.7067 47.0349 17.4209 46.691 17.4209Z" fill="#F0F0F0"/>
<path d="M46.691 19.6243H42.6616C42.3177 19.6243 42.0391 19.91 42.0391 20.2626C42.0391 20.6152 42.3177 20.901 42.6616 20.901H46.691C47.0349 20.901 47.3136 20.6152 47.3136 20.2626C47.3136 19.91 47.0349 19.6243 46.691 19.6243Z" fill="#F0F0F0"/>
<path d="M6.23351 29.5952C6.30912 29.8703 6.55396 30.0603 6.83265 30.0603C7.11133 30.0603 7.35617 29.8703 7.43179 29.5952L8.56374 25.4789C8.57924 25.4225 8.58717 25.3643 8.58717 25.3057V3.65611C8.58717 3.30351 8.30848 3.01776 7.9646 3.01776H5.7007C5.35681 3.01776 5.07812 3.30351 5.07812 3.65611V25.3058C5.07812 25.3644 5.08594 25.4227 5.10156 25.4791L6.23351 29.5952ZM6.52317 25.9441H7.14223L6.83265 27.0698L6.52317 25.9441ZM7.34202 4.29445V24.6674H6.32327V4.29445H7.34202Z" fill="#F0F0F0"/>
<path d="M0.622572 30.0604H2.88647C3.23036 30.0604 3.50904 29.7747 3.50904 29.4221V7.77239C3.50904 7.71378 3.50123 7.65552 3.48561 7.59911L2.35366 3.48283C2.27805 3.20776 2.03321 3.01776 1.75452 3.01776C1.47584 3.01776 1.23099 3.20776 1.15538 3.48283L0.0234313 7.59911C0.00781045 7.65552 0 7.71378 0 7.77239V29.4221C0 29.7745 0.278686 30.0604 0.622572 30.0604ZM1.24514 28.7837V8.41074H2.2639V28.7837H1.24514ZM2.06411 7.13405H1.44493L1.75452 6.00835L2.06411 7.13405Z" fill="#F0F0F0"/>
</svg>
