<svg width="50" height="50" viewBox="0 0 50 50" fill="none" xmlns="http://www.w3.org/2000/svg">
<path d="M47.5806 0H25C24.3583 0 23.743 0.254896 23.2893 0.708613C22.8355 1.16233 22.5806 1.7777 22.5806 2.41935V6.45161H4.03226C3.50273 6.45161 2.9784 6.55591 2.48918 6.75855C1.99996 6.96119 1.55545 7.2582 1.18102 7.63263C0.424826 8.38883 0 9.41445 0 10.4839V34.6774C0 35.7468 0.424826 36.7725 1.18102 37.5287C1.55545 37.9031 1.99996 38.2001 2.48918 38.4027C2.9784 38.6054 3.50273 38.7097 4.03226 38.7097H15.3226V43.5484H13.7097C12.6403 43.5484 11.6146 43.9732 10.8584 44.7294C10.1022 45.4856 9.67742 46.5112 9.67742 47.5806V49.1936C9.67742 49.4074 9.76238 49.6126 9.91362 49.7638C10.0649 49.915 10.27 50 10.4839 50H31.4516C31.6655 50 31.8706 49.915 32.0219 49.7638C32.1731 49.6126 32.2581 49.4074 32.2581 49.1936V47.5806C32.2581 47.0511 32.1538 46.5268 31.9511 46.0376C31.7485 45.5484 31.4515 45.1038 31.077 44.7294C30.7026 44.355 30.2581 44.058 29.7689 43.8553C29.2797 43.6527 28.7553 43.5484 28.2258 43.5484H26.6129V38.7097H37.9032C38.9726 38.7097 39.9983 38.2849 40.7545 37.5287C41.5107 36.7725 41.9355 35.7468 41.9355 34.6774V22.5806H47.5806C48.2223 22.5806 48.8377 22.3257 49.2914 21.872C49.7451 21.4183 50 20.8029 50 20.1613V2.41935C50 1.7777 49.7451 1.16233 49.2914 0.708613C48.8377 0.254896 48.2223 0 47.5806 0ZM14.5161 17.7419C14.3022 17.7419 14.0971 17.657 13.9459 17.5057C13.7946 17.3545 13.7097 17.1494 13.7097 16.9355C13.7097 16.7216 13.7946 16.5165 13.9459 16.3652C14.0971 16.214 14.3022 16.129 14.5161 16.129H33.7419L36.1613 16.9355L33.7419 17.7419H14.5161ZM30.6452 47.5806V48.3871H11.2903V47.5806C11.2903 46.939 11.5452 46.3236 11.9989 45.8699C12.4527 45.4162 13.068 45.1613 13.7097 45.1613H28.2258C28.8675 45.1613 29.4828 45.4162 29.9365 45.8699C30.3903 46.3236 30.6452 46.939 30.6452 47.5806ZM25 43.5484H16.9355V38.7097H25V43.5484ZM37.9032 37.0968H4.03226C3.39061 37.0968 2.77523 36.8419 2.32152 36.3882C1.8678 35.9344 1.6129 35.3191 1.6129 34.6774V32.2581H40.3226V34.6774C40.3226 35.3191 40.0677 35.9344 39.614 36.3882C39.1603 36.8419 38.5449 37.0968 37.9032 37.0968ZM40.3226 30.6452H1.6129V10.4839C1.6129 9.84222 1.8678 9.22685 2.32152 8.77313C2.77523 8.31941 3.39061 8.06452 4.03226 8.06452H22.5806V14.5161H14.5161C13.8745 14.5161 13.2591 14.771 12.8054 15.2247C12.3517 15.6785 12.0968 16.2938 12.0968 16.9355C12.0968 17.5771 12.3517 18.1925 12.8054 18.6462C13.2591 19.0999 13.8745 19.3548 14.5161 19.3548H22.5806V20.1613C22.5806 20.8029 22.8355 21.4183 23.2893 21.872C23.743 22.3257 24.3583 22.5806 25 22.5806H40.3226V30.6452ZM48.3871 20.1613C48.3871 20.3752 48.3021 20.5803 48.1509 20.7315C47.9997 20.8828 47.7945 20.9677 47.5806 20.9677H25C24.7861 20.9677 24.581 20.8828 24.4298 20.7315C24.2785 20.5803 24.1935 20.3752 24.1935 20.1613V19.3548H33.871C33.9584 19.3532 34.0453 19.3397 34.129 19.3145L38.9677 17.7016C39.1291 17.6486 39.2696 17.546 39.3692 17.4084C39.4688 17.2708 39.5224 17.1053 39.5224 16.9355C39.5224 16.7656 39.4688 16.6001 39.3692 16.4626C39.2696 16.325 39.1291 16.2224 38.9677 16.1694L34.129 14.5565C34.0453 14.5313 33.9584 14.5177 33.871 14.5161H24.1935V2.41935C24.1935 2.20547 24.2785 2.00035 24.4298 1.84911C24.581 1.69787 24.7861 1.6129 25 1.6129H47.5806C47.7945 1.6129 47.9997 1.69787 48.1509 1.84911C48.3021 2.00035 48.3871 2.20547 48.3871 2.41935V20.1613Z" fill="#F0F0F0"/>
</svg>
