<svg width="50" height="50" viewBox="0 0 50 50" fill="none" xmlns="http://www.w3.org/2000/svg">
<path d="M49.1667 43.3333H48.3333V13.3333C48.3333 11.4924 46.8409 10 45 10H40V3.33333C40 1.4924 38.5076 0 36.6667 0H13.3333C11.4924 0 10 1.4924 10 3.33333V10H5C3.15906 10 1.66667 11.4924 1.66667 13.3333V43.3333H0.833333C0.373125 43.3333 0 43.7065 0 44.1667V46.6667C0 48.5076 1.4924 50 3.33333 50H46.6667C48.5076 50 50 48.5076 50 46.6667V44.1667C50 43.7065 49.6269 43.3333 49.1667 43.3333ZM11.6667 3.33333C11.6667 2.41281 12.4128 1.66667 13.3333 1.66667H36.6667C37.5872 1.66667 38.3333 2.41281 38.3333 3.33333V6.66667H11.6667V3.33333ZM11.6667 8.33333H38.3333V32.5C38.3333 33.4205 37.5872 34.1667 36.6667 34.1667H13.3333C12.4128 34.1667 11.6667 33.4205 11.6667 32.5V8.33333ZM13.3333 35.8333H36.6667C38.5076 35.8333 40 34.3409 40 32.5V15H43.3333V38.3333H6.66667V15H10V32.5C10 34.3409 11.4924 35.8333 13.3333 35.8333ZM3.33333 13.3333C3.33333 12.4128 4.07948 11.6667 5 11.6667H10V13.3333H5.83333C5.37313 13.3333 5 13.7065 5 14.1667V39.1667C5 39.6269 5.37313 40 5.83333 40H44.1667C44.6269 40 45 39.6269 45 39.1667V14.1667C45 13.7065 44.6269 13.3333 44.1667 13.3333H40V11.6667H45C45.9205 11.6667 46.6667 12.4128 46.6667 13.3333V43.3333H32.5C32.2792 43.3331 32.0672 43.4207 31.9108 43.5767L30.4883 45H19.5117L18.0892 43.5767C17.9328 43.4207 17.7208 43.3331 17.5 43.3333H3.33333V13.3333ZM48.3333 46.6667C48.3333 47.5872 47.5872 48.3333 46.6667 48.3333H3.33333C2.41281 48.3333 1.66667 47.5872 1.66667 46.6667V45H17.155L18.5775 46.4225C18.7337 46.5788 18.9456 46.6667 19.1667 46.6667H30.8333C31.0544 46.6667 31.2663 46.5788 31.4225 46.4225L32.845 45H48.3333V46.6667Z" fill="#F0F0F0"/>
</svg>
