<svg width="96" height="65" viewBox="0 0 96 65" fill="none" xmlns="http://www.w3.org/2000/svg">
<path d="M86.9999 0H9.00006C4.03712 0 0 3.64462 0 8.12504V56.875C0 61.3554 4.03712 65 9.00006 65H86.9999C91.9629 65 96 61.3554 96 56.875V8.12504C96 3.64462 91.9629 0 86.9999 0ZM86.9999 5.41664C87.4075 5.41664 87.7953 5.49298 88.1498 5.62631L48 37.0412L7.85001 5.62631C8.2045 5.49316 8.59226 5.41664 8.99986 5.41664H86.9999ZM86.9999 59.5832H9.00006C7.34481 59.5832 5.99997 58.3693 5.99997 56.8748V11.349L46.0341 42.672C46.5996 43.1136 47.2998 43.3333 48 43.3333C48.7002 43.3333 49.4003 43.1138 49.9659 42.672L90 11.349V56.875C89.9998 58.3693 88.6552 59.5832 86.9999 59.5832Z" fill="white"/>
</svg>
