<svg width="96" height="96" viewBox="0 0 96 96" fill="none" xmlns="http://www.w3.org/2000/svg">
<path d="M90.7018 0H5.29824C2.37122 0 0 2.37122 0 5.29824V90.7018C0 93.6276 2.37122 96 5.29824 96H51.2763V58.8242H38.7662V44.3353H51.2763V33.6509C51.2763 21.2507 58.8491 14.4993 69.9114 14.4993C75.2096 14.4993 79.7624 14.8937 81.0899 15.0703V28.0283L73.4191 28.0315C67.4027 28.0315 66.2388 30.8907 66.2388 35.0851V44.3353H80.5851L78.7174 58.8242H66.2388V96H90.7018C93.6276 96 96 93.6276 96 90.7018V5.29824C96 2.37122 93.6276 0 90.7018 0Z" fill="white"/>
</svg>
