<svg width="96" height="96" viewBox="0 0 96 96" fill="none" xmlns="http://www.w3.org/2000/svg">
<path d="M48 96C74.5097 96 96 74.5097 96 48C96 21.4903 74.5097 0 48 0C21.4903 0 0 21.4903 0 48C0 74.5097 21.4903 96 48 96Z" fill="white"/>
<path d="M55.6883 25.6875C55.6883 28.875 58.2758 31.4625 61.5008 31.4625C64.6883 31.4625 67.2758 28.875 67.2758 25.6875C67.2758 22.4625 64.6883 19.875 61.5008 19.875C58.2758 19.875 55.6883 22.4625 55.6883 25.6875ZM41.907 20.8312C34.407 20.8312 29.5508 25.2938 28.5945 29.8688C28.5008 30.4125 28.407 30.9563 28.407 31.5V35.775H23.3633V44.2688H28.407V63.5813H23.3633V72.375C30.6758 72.375 38.007 72.375 45.3195 72.375V63.6H40.2195V44.2875H55.5758V63.6H50.6258V72.375C57.9383 72.375 65.307 72.375 72.6195 72.375V63.6H67.3883V35.775H40.2008V33.225C40.2008 31.125 42.2445 29.8688 43.9695 29.8688H48.1883V20.8312H41.907Z" fill="#37324B"/>
</svg>
