<svg id="First_Final" data-name="First Final" xmlns="http://www.w3.org/2000/svg" viewBox="0 0 1050.92 289.75"><defs><style>.cls-1,.cls-10,.cls-2,.cls-5,.cls-6{fill:none;}.cls-1{stroke:#0094db;stroke-width:6px;}.cls-1,.cls-10,.cls-5,.cls-6{stroke-miterlimit:10;}.cls-3,.cls-9{fill:#6c6e70;}.cls-4,.cls-8{fill:#0094db;}.cls-5{stroke:#fff;stroke-linecap:round;}.cls-5,.cls-6{stroke-width:8px;}.cls-10,.cls-6{stroke:#2d93ba;}.cls-7{fill:#fff;}.cls-8{font-size:119.34px;font-family:GothamBlack, Gotham Black;}.cls-9{font-size:69.25px;font-family:Humanist777BT-LightB, Humnst777 Lt BT;font-weight:300;letter-spacing:0.02em;}.cls-10{stroke-width:4px;}</style></defs><title>Flexmor Logo First VECTOR</title><line class="cls-1" x1="46.72" y1="40.62" x2="6.46" y2="21.63"/><line class="cls-1" x1="50.89" y1="47.84" x2="60.85" y2="4.45"/><line class="cls-2" x1="625.21" y1="160.37" x2="620.19" y2="164.74"/><line class="cls-2" x1="519.37" y1="164.74" x2="514.35" y2="160.37"/><path class="cls-2" d="M1041.08,482.92" transform="translate(-511.82 -292.12)"/><path class="cls-3" d="M865.32,332.13H578.56a15.13,15.13,0,0,1-15.14,15.13,15.44,15.44,0,0,1-2.47-.2V525.44a9.5,9.5,0,0,0,9.51,9.5H865.32a9.51,9.51,0,0,0,9.51-9.5V341.63A9.51,9.51,0,0,0,865.32,332.13ZM717.45,485.82a57.93,57.93,0,1,1,57.93-57.94A57.93,57.93,0,0,1,717.45,485.82Z" transform="translate(-511.82 -292.12)"/><path class="cls-3" d="M767.34,559.62l-5.51-1.27L760.3,558c-12.35-3.15-16.27-7.6-15.69-16.75a15.71,15.71,0,0,1,26.12-10.73l5.3-4.61H659.1l5.29,4.61a15.72,15.72,0,0,1,26.07,10c1,9.48-8.84,16-15.63,17.49l-1.05.36-7.07,2.39a11.2,11.2,0,0,0-7.61,10.61c0,8.82,4.4,10.53,11.11,10.53h94.71c6.71,0,11.11-1.71,11.11-10.53v-.81A11.2,11.2,0,0,0,767.34,559.62Z" transform="translate(-511.82 -292.12)"/><path class="cls-4" d="M765.52,429a48.07,48.07,0,1,1-48.07-48.07A48.07,48.07,0,0,1,765.52,429Z" transform="translate(-511.82 -292.12)"/><path class="cls-5" d="M701.17,444.66c11.32-15.67,25.6-13.06,33.43,0" transform="translate(-511.82 -292.12)"/><path class="cls-5" d="M691.6,433.87c17.74-22.29,39.72-15.84,51.88,0" transform="translate(-511.82 -292.12)"/><path class="cls-6" d="M548.69,359.92c-19.82,14.31-15.18,33.41-2.09,44.48" transform="translate(-511.82 -292.12)"/><path class="cls-6" d="M544.1,418.22c-19.82,14.31-15.18,33.41-2.09,44.48" transform="translate(-511.82 -292.12)"/><path class="cls-6" d="M544.1,475.68C524.28,490,528.92,509.09,542,520.16" transform="translate(-511.82 -292.12)"/><path class="cls-6" d="M885.63,359.92c19.82,14.31,15.19,33.41,2.09,44.48" transform="translate(-511.82 -292.12)"/><path class="cls-6" d="M890.23,418.22c19.81,14.31,15.18,33.41,2.09,44.48" transform="translate(-511.82 -292.12)"/><path class="cls-6" d="M890.23,475.68c19.81,14.31,15.18,33.41,2.09,44.48" transform="translate(-511.82 -292.12)"/><path class="cls-5" d="M683.24,421.68c25.58-25.31,47.94-19.27,68.94,0" transform="translate(-511.82 -292.12)"/><circle class="cls-7" cx="206.77" cy="159.51" r="6.96"/><circle class="cls-4" cx="51.49" cy="40.62" r="11.23"/><circle class="cls-3" cx="4.45" cy="21.05" r="4.45"/><circle class="cls-3" cx="61.42" cy="4.45" r="4.45"/><text class="cls-8" transform="translate(437.96 150.8)">FLEXMOR</text><text class="cls-9" transform="translate(439.16 221.22)">Streaming Solutions</text><line class="cls-10" x1="446.16" y1="161.64" x2="1041.45" y2="161.64"/></svg>