<svg width="50" height="50" viewBox="0 0 50 50" fill="none" xmlns="http://www.w3.org/2000/svg">
<path d="M47.2135 0.000122778H16.4401C16.0348 0.000122778 15.7062 0.413374 15.7062 0.923305C15.7062 1.43311 16.0348 1.84649 16.4401 1.84649H47.2135C47.9407 1.84649 48.5324 2.59081 48.5324 3.50564V36.1157H1.46768V3.50551C1.46768 2.59068 2.05938 1.84637 2.78663 1.84637H13.5046C13.9099 1.84637 14.2385 1.43299 14.2385 0.923182C14.2385 0.413374 13.9099 0 13.5046 0H2.78663C1.2501 0.000122845 0 1.57267 0 3.50551V46.4946C0 48.4275 1.2501 50 2.78663 50H10.848C11.2532 50 11.5819 49.5866 11.5819 49.0768C11.5819 48.567 11.2532 48.1536 10.848 48.1536H2.78663C2.05938 48.1536 1.46768 47.4093 1.46768 46.4945V37.9617H48.5323V46.4945C48.5323 47.4093 47.9406 48.1536 47.2134 48.1536H13.7833C13.3781 48.1536 13.0494 48.567 13.0494 49.0768C13.0494 49.5866 13.3781 50 13.7833 50H47.2134C48.75 50 50 48.4275 50 46.4946V3.50551C50.0001 1.57267 48.7501 0.000122778 47.2135 0.000122778Z" fill="#F0F0F0"/>
<path d="M20.6815 46.8186C22.0767 46.8186 23.2516 45.6098 23.5795 43.9811H43.7945C44.1999 43.9811 44.5284 43.5677 44.5284 43.0579C44.5284 42.5481 44.1999 42.1347 43.7945 42.1347H23.5795C23.2515 40.506 22.0767 39.2972 20.6815 39.2972C19.2862 39.2972 18.1114 40.506 17.7833 42.1347H6.20654C5.80127 42.1347 5.47266 42.5481 5.47266 43.0579C5.47266 43.5677 5.80127 43.9811 6.20654 43.9811H17.7833C18.1114 45.6098 19.2862 46.8186 20.6815 46.8186ZM20.6815 41.1435C21.5205 41.1435 22.2033 42.0023 22.2033 43.0579C22.2033 44.1135 21.5205 44.9723 20.6815 44.9723C19.8423 44.9723 19.1596 44.1135 19.1596 43.0579C19.1596 42.0023 19.8423 41.1435 20.6815 41.1435Z" fill="#F0F0F0"/>
<path d="M18.0954 14.4369C17.9547 14.0069 17.6253 13.7293 17.2558 13.7293C17.2555 13.7293 17.2552 13.7293 17.2549 13.7293C16.8851 13.7298 16.5556 14.0082 16.4156 14.4389C16.4133 14.4459 16.4112 14.4529 16.409 14.4599L13.5269 23.9792C13.1764 25.0893 14.567 25.7653 14.8985 24.6363L15.4363 22.86H19.054L19.5861 24.6337C19.9093 25.7607 21.3085 25.0961 20.9593 23.9819L18.1034 14.4622C18.1008 14.4537 18.0981 14.4453 18.0954 14.4369ZM15.9953 21.0138L17.2534 16.8583L18.5 21.0138H15.9953Z" fill="#F0F0F0"/>
<path d="M22.5067 24.1556C22.4871 24.7017 22.7972 25.2465 23.2585 25.2309C23.3222 25.2306 24.825 25.2233 25.4246 25.2102C27.5495 25.1634 29.0919 22.8137 29.0919 19.6229C29.0919 16.2686 27.5882 14.015 25.3501 14.015H23.2405C23.0456 14.015 22.8588 14.1126 22.7212 14.286C22.5835 14.4595 22.5064 14.6947 22.5067 14.9399V14.9476V14.9479V24.1556ZM25.3501 15.8613C27.0268 15.8613 27.6242 17.8045 27.6242 19.6229C27.6242 21.4012 26.9279 23.3305 25.399 23.3641C25.0774 23.3712 24.4728 23.3766 23.987 23.3802C23.9841 22.2773 23.9798 20.4747 23.9798 19.6126C23.9798 18.8894 23.9773 17.005 23.9757 15.8613H25.3501Z" fill="#F0F0F0"/>
<path d="M33.478 23.3846C32.6525 23.3846 31.8558 22.9628 31.347 22.2565C31.0748 21.8785 30.6107 21.8501 30.3104 22.1924C30.0101 22.5347 29.9873 23.1185 30.2593 23.4964C31.0418 24.5824 32.245 25.2309 33.4779 25.2309C34.9618 25.2309 36.2548 24.0042 36.4856 22.3775C36.6607 21.1444 36.2042 19.5281 34.3983 18.6902C33.4188 18.2356 32.5097 17.7397 32.271 17.6078C32.0437 17.3953 31.9337 17.0579 31.9754 16.6931C32.0287 16.226 32.316 15.8502 32.744 15.6881C33.9477 15.232 35.0394 16.3292 35.0643 16.3548C35.3747 16.6796 35.8355 16.6283 36.0956 16.2392C36.3563 15.8489 36.3163 15.2666 36.006 14.9385C35.9374 14.866 34.3021 13.1693 32.3207 13.9203C31.3461 14.2896 30.6571 15.2516 30.5225 16.4308C30.397 17.5304 30.7756 18.5878 31.5106 19.1906C31.543 19.2172 31.577 19.2405 31.6124 19.2604C31.6565 19.2852 32.7068 19.8734 33.8903 20.4225C34.7142 20.8048 35.1336 21.3992 35.0407 22.0531C34.948 22.7076 34.338 23.3846 33.478 23.3846Z" fill="#F0F0F0"/>
<path d="M34.7633 29.6418H38.9802C40.1942 29.6418 41.1818 28.3995 41.1818 26.8724V12.0877C41.1818 10.5606 40.1942 9.31831 38.9802 9.31831H11.0199C9.80596 9.31831 8.81836 10.5606 8.81836 12.0877V26.8724C8.81836 28.3995 9.80596 29.6418 11.0199 29.6418H31.8279C32.2332 29.6418 32.5618 29.2285 32.5618 28.7187C32.5618 28.2088 32.2332 27.7955 31.8279 27.7955H11.0199C10.6152 27.7955 10.286 27.3814 10.286 26.8723V12.0877C10.286 11.5787 10.6152 11.1646 11.0199 11.1646H38.9802C39.3849 11.1646 39.7141 11.5787 39.7141 12.0877V26.8724C39.7141 27.3815 39.3849 27.7956 38.9802 27.7956H34.7633C34.358 27.7956 34.0294 28.209 34.0294 28.7188C34.0295 29.2286 34.3581 29.6418 34.7633 29.6418Z" fill="#F0F0F0"/>
</svg>
