<svg id="Layer_2" data-name="Layer 2" xmlns="http://www.w3.org/2000/svg" viewBox="0 0 1577 461.46"><defs><style>.cls-1{fill:#e0324c;}.cls-2{fill:#f79607;}.cls-3{fill:#4ba543;}.cls-4{fill:#24506d;}.cls-5{fill:#bb5261;}.cls-6{fill:#0072b3;}.cls-7{fill:#da251d;}.cls-8{fill:#002475;}.cls-9{fill:#de9230;}.cls-10{fill:#f0b245;}.cls-11{fill:#a41211;}.cls-12{fill:#e8a052;}.cls-13{fill:#466c37;}.cls-14{fill:#ce8b1e;}.cls-15{fill:#335823;}.cls-16{fill:#62666a;}.cls-17{fill:#f8c300;}</style></defs><title>Logo Style 1 Multiple Color Vector</title><path class="cls-1" d="M953.4,523.94q0,55.9-40.08,93-40,37.44-96.69,37.44t-95.16-35.63q-40.08-36.65-40.07-93,0-53.37,40.43-90.73,40-37.08,98.51-37.09,57.43,0,96,37.81Q953.39,472,953.4,523.94Zm-42.25,7.42q0-43.42-24.51-73.73-26.24-33-68.84-33T749.6,452q-26,27.77-26,70.37,0,41.16,25.6,71.91,27.76,33.38,69.29,33.38,41.88,0,67.39-27.05Q911.15,573.6,911.15,531.36Z" transform="translate(-171.5 -298.65)"/><path class="cls-2" d="M1090.44,648.4q9.32-6,12.21-14.47,1.89-5.52,1.9-18.09V557.59q0-30.68-10-45.5-10-14.48-34.83-14.47-23,0-32.2,14.11-7.05,10.31-7.06,30.3v74.9q0,11.85,2.63,18.54,2.16,6.6,11.48,11.85l-61.87,1.08a29.86,29.86,0,0,0,10.68-11.12q3.35-6.33,3.34-21.89V509.83q0-12.21-1.8-17.37-3-8.23-12.22-13.39l21.8-1.08a81.82,81.82,0,0,0,13.75-1.09,31.88,31.88,0,0,0,11.13-3.71l1.08,28.5q10-13.76,22.62-21.08t29.67-7.42a84.86,84.86,0,0,1,32.56,6.24A53.67,53.67,0,0,1,1129,498.7a48.38,48.38,0,0,1,8.5,26q.83,15.2.82,29.31v63q0,11.85,2.53,18.54,2.27,6.6,11.85,11.85Z" transform="translate(-171.5 -298.65)"/><path class="cls-3" d="M1174.92,648.4a30.6,30.6,0,0,0,10.77-11.12q3.35-6.33,3.34-21.89V509.46q0-11.83-1.9-17-2.89-8.23-12.21-13.39l22.62-1.08a76.53,76.53,0,0,0,14.11-1.09,18.49,18.49,0,0,0,9.95-4.88l1.17,135.23v9.31q0,12.23,2.54,18.91,2.25,6.6,11.48,11.85ZM1226.84,432a23.66,23.66,0,0,1-6.33,16.28,20.49,20.49,0,0,1-15.92,7.05,23.28,23.28,0,0,1-17.09-7.05,23.76,23.76,0,0,1-7-17.37A19.88,19.88,0,0,1,1188,415a24.72,24.72,0,0,1,16.64-6,21,21,0,0,1,15.92,6.69A22.64,22.64,0,0,1,1226.84,432Z" transform="translate(-171.5 -298.65)"/><path class="cls-4" d="M1287.92,672.29a3,3,0,0,0,1.33,1C1288.81,672.92,1288.37,672.59,1287.92,672.29Z" transform="translate(-171.5 -298.65)"/><path class="cls-5" d="M1479.12,648.4a30.6,30.6,0,0,0,10.77-11.12q3.34-6.33,3.34-21.89V509.46q0-11.83-1.9-17-2.89-8.23-12.21-13.39l22.62-1.08a76.53,76.53,0,0,0,14.11-1.09,18.49,18.49,0,0,0,10-4.88L1527,607.25v9.31q0,12.23,2.54,18.91,2.25,6.6,11.49,11.85ZM1531.05,432a23.67,23.67,0,0,1-6.34,16.28,20.49,20.49,0,0,1-15.92,7.05,23.28,23.28,0,0,1-17.09-7.05,23.76,23.76,0,0,1-7-17.37,19.88,19.88,0,0,1,7.42-15.92,24.72,24.72,0,0,1,16.64-6,21,21,0,0,1,15.92,6.69A22.65,22.65,0,0,1,1531.05,432Z" transform="translate(-171.5 -298.65)"/><path class="cls-6" d="M1674.42,508.38q-5.61-6-17.1-6-21.08,0-30.39,12.21-9.59,12.3-9.59,40.8v61.14q0,12.23,2.62,18.91,2.18,6.6,11.49,11.85l-61.87,1.08a30.8,30.8,0,0,0,10.67-11.12q3.35-6.33,3.35-21.89V508.74q0-11.85-1.81-16.73-3-7.78-11.85-12.94l23.7-1.08a70.28,70.28,0,0,0,13.3-1.09,19.37,19.37,0,0,0,9.32-3.71l1.08,28.13A51.88,51.88,0,0,1,1635.52,481a44.54,44.54,0,0,1,25.51-7.78l13.39,1.09Z" transform="translate(-171.5 -298.65)"/><path class="cls-2" d="M1686.63,648.4a30.57,30.57,0,0,0,10.76-11.12q3.34-6.33,3.35-21.89V509.46q0-11.83-1.9-17-2.89-8.23-12.21-13.39l22.61-1.08a76.45,76.45,0,0,0,14.11-1.09,18.46,18.46,0,0,0,10-4.88l1.18,135.23v9.31q0,12.23,2.53,18.91,2.27,6.6,11.49,11.85ZM1738.55,432a23.66,23.66,0,0,1-6.33,16.28,20.49,20.49,0,0,1-15.92,7.05,23.3,23.3,0,0,1-17.1-7.05,23.79,23.79,0,0,1-7-17.37,19.9,19.9,0,0,1,7.41-15.92,24.75,24.75,0,0,1,16.65-6,21,21,0,0,1,15.92,6.69A22.64,22.64,0,0,1,1738.55,432Z" transform="translate(-171.5 -298.65)"/><path class="cls-4" d="M1287.92,672.29c.45.3.89.63,1.33,1A3,3,0,0,1,1287.92,672.29Z" transform="translate(-171.5 -298.65)"/><path class="cls-4" d="M1433.9,629.14q-24.8-12.93-73.73-12.94h-3.7a48.71,48.71,0,0,1-12.94-1.53q-5.61-1.09-5.61-5.52,0-4.08,5.61-7.06a19.34,19.34,0,0,1,9.59-3q31.94-3,52.28-14.48,26.68-15.11,26.69-43.32A48.94,48.94,0,0,0,1425,515.8a59.9,59.9,0,0,0-19.27-19.27q9.24,1.82,18.91,3.35a132,132,0,0,0,19.63,1.44q5.88,0,7.78-1.9,1.44-1.44,4.07-7l8.5-19.27H1352.71q-31.5,0-54.12,15.56-25.53,17.37-25.52,47.4,0,20.72,14.41,36.63,14.13,16.38,34.52,20.45-3.7,1.8-17.74,7.41-11.52,5.54-11.52,12.24a24.87,24.87,0,0,0,7.8,18.14q7.43,8.25,19.29,8.25l25.51-.82q28.22,0,46.31,5.25,29.31,8.14,29.31,29.22,0,20.8-23.7,30.75c-23.41,9.82-49,4.66-72.49-2.09-42.69-12.29-85.27-26.4-130-28.87-54.07-3-108.15,1.8-162.23,1-10.12-.14-20.23-.47-30.33-1.1C912.18,667,821.4,661.47,732,673.85c-93.47,12.95-185.11,45.46-279.39,41.31-47.42-2.09-94.22-13.54-138.13-31.55-15.07-6.17-30.69-13.27-46.89-11.67,13,27.75,39.49,46.84,67.09,60.14a283.51,283.51,0,0,0,119.66,28c100.32,1.08,193.31-50.57,292.17-67.63,68.69-11.85,139-6.8,208.54-1.72,55.42,4,111,5.63,166.4,9.88a1173.4,1173.4,0,0,1,161,23.91c47.71,10.43,102.15,19.66,146.61-6.44q29.67-17.42,29.67-47.8Q1458.77,642.43,1433.9,629.14Zm-123.38-99q0-15.55,10.76-24.06t27-8.5q19.62,0,33,11.84t13.34,29.31q0,15.93-10.77,25.92t-27.76,10q-18.19,0-31.89-13.34T1310.52,530.18Z" transform="translate(-171.5 -298.65)"/><ellipse class="cls-7" cx="232.2" cy="184.08" rx="180.42" ry="169.95"/><circle class="cls-8" cx="28.21" cy="254.88" r="5.37"/><circle class="cls-8" cx="28.21" cy="277.99" r="5.37"/><path class="cls-9" d="M386.41,303.68s35.9-21.08,63.78,23.1,70.4,119.45,70.4,119.45,16,38.34-29.28,59.25h-76Z" transform="translate(-171.5 -298.65)"/><path class="cls-10" d="M374.21,310.67c6.76-8.65,14-11.17,22.31,2.19l78.76,128.46c8.83,34.79-.23,56-26.49,64.16H323.33c-32.9-13.21-38.68-37.86-25.79-70.4Z" transform="translate(-171.5 -298.65)"/><circle class="cls-11" cx="214.91" cy="146.62" r="29.51"/><path class="cls-12" d="M273.35,395.08s35.9-21.08,63.78,23.1,70.4,119.45,70.4,119.45,16,38.34-29.27,59.25h-76Z" transform="translate(-171.5 -298.65)"/><path class="cls-9" d="M261.16,402.07c6.75-8.65,13.95-11.17,22.3,2.19l78.76,128.46c8.83,34.79-.23,56-26.48,64.16H210.27c-32.9-13.21-38.68-37.86-25.79-70.4Z" transform="translate(-171.5 -298.65)"/><rect class="cls-13" x="63.17" y="222.25" width="75.98" height="75.98"/><path class="cls-14" d="M529.9,397.51s-35.9-21.08-63.78,23.1-70.4,119.45-70.4,119.45-16,38.34,29.27,59.25h76Z" transform="translate(-171.5 -298.65)"/><path class="cls-10" d="M542.09,404.5c-6.75-8.66-14-11.17-22.3,2.19L441,535.15c-8.82,34.79.24,56,26.49,64.16H593c32.9-13.21,38.68-37.87,25.79-70.4Z" transform="translate(-171.5 -298.65)"/><rect class="cls-15" x="492.6" y="523.34" width="75.98" height="75.98" transform="translate(889.69 823.99) rotate(-180)"/><path class="cls-7" d="M571.68,481.1a6.31,6.31,0,0,1-3.49,3.35l-4.81,1.87-11.78,4.6L547,479.14l-1.88-4.82a6.32,6.32,0,0,1,11.78-4.59l1.88,4.82,4.81-1.88a6.31,6.31,0,0,1,8.08,8.43Z" transform="translate(-171.5 -298.65)"/><path class="cls-7" d="M496.86,490.38a6.31,6.31,0,0,0,4.42,2l5.17.13,12.63.31.32-12.63.12-5.17a6.32,6.32,0,1,0-12.63-.31l-.13,5.17-5.17-.13a6.32,6.32,0,0,0-4.73,10.67Z" transform="translate(-171.5 -298.65)"/><path class="cls-5" d="M552.41,508c0,4.82-4.83,9.41-11.51,10.58-7.21,1.27-13.8-2-14.72-7.18a6.65,6.65,0,0,1-.08-1.78C534,509.48,545.12,509.06,552.41,508Z" transform="translate(-171.5 -298.65)"/><path class="cls-16" d="M552.17,506.26l.24,1.75c-7.29,1.05-18.46,1.47-26.31,1.62v-.05l.12-.76c.78-4.31,5.34-8.15,11.34-9.2C544.54,498.4,550.9,501.34,552.17,506.26Z" transform="translate(-171.5 -298.65)"/><circle cx="209.54" cy="45.6" r="5.37"/><circle cx="226.83" cy="62.22" r="5.37"/><circle cx="204.18" cy="77.65" r="5.37"/><circle cx="226.83" cy="83.02" r="5.37"/><circle cx="244.42" cy="105.84" r="5.37"/><circle cx="354.57" cy="122.56" r="5.37"/><circle cx="351.84" cy="148.89" r="5.37"/><circle cx="307.06" cy="214.79" r="5.37"/><circle cx="101.85" cy="131.02" r="5.37"/><circle cx="100.31" cy="156.33" r="5.37"/><circle cx="69.03" cy="172.87" r="5.37"/><circle cx="97.75" cy="192.77" r="5.37"/><circle cx="119.68" cy="170.77" r="5.37"/><circle cx="130.41" cy="189.45" r="5.37"/><circle cx="33.58" cy="231.76" r="5.37"/><circle cx="61.07" cy="203.28" r="5.37"/><circle cx="114.31" cy="208.65" r="5.37"/><circle cx="151.65" cy="208.65" r="5.37"/><circle cx="152.6" cy="237.13" r="5.37"/><circle cx="167.68" cy="242.49" r="5.37"/><circle cx="152.6" cy="270.88" r="5.37"/><circle cx="173.05" cy="276.24" r="5.37"/><circle cx="45.34" cy="270.88" r="5.37"/><circle cx="50.71" cy="237.13" r="5.37"/><circle cx="87.69" cy="172.87" r="5.37"/><circle cx="82.32" cy="146.62" r="5.37"/><circle cx="39.98" cy="205.84" r="5.37"/><circle cx="84.15" cy="206.83" r="5.37"/><circle cx="295.3" cy="254.88" r="5.37"/><circle cx="295.3" cy="276.24" r="5.37"/><circle cx="307.06" cy="237.13" r="5.37"/><circle cx="404.69" cy="260.24" r="5.37"/><circle cx="377.78" cy="148.89" r="5.37"/><circle cx="328.98" cy="161.69" r="5.37"/><circle cx="365.66" cy="131.02" r="5.37"/><circle cx="360.3" cy="172.87" r="5.37"/><circle cx="194" cy="105.84" r="5.37"/><circle cx="178.41" cy="86.03" r="5.37"/><circle cx="188.64" cy="62.22" r="5.37"/><circle cx="213.37" cy="100.48" r="5.37"/><circle cx="173.05" cy="111.21" r="5.37"/><circle cx="255.16" cy="141.26" r="5.37"/><circle cx="266.25" cy="117.11" r="5.37"/><circle cx="221.47" cy="187.4" r="5.37"/><circle cx="244.42" cy="176.14" r="5.37"/><circle cx="255.16" cy="83.02" r="5.37"/><path class="cls-17" d="M171.5,598.05l453.63,2.43v19a41,41,0,0,1-41,41H212.54a41,41,0,0,1-41-41Z" transform="translate(-171.5 -298.65)"/></svg>