<svg id="Logo_1_Main" data-name="Logo 1 Main" xmlns="http://www.w3.org/2000/svg" viewBox="0 0 1727.66 621.65"><defs><style>.cls-1{font-size:222.77px;font-family:AvenirNextLTPro-Regular, Avenir Next LT Pro;letter-spacing:0.01em;}.cls-1,.cls-15{fill:#082f4c;}.cls-2{letter-spacing:0em;}.cls-3,.cls-4{font-family:AvenirNextLTPro-Bold, Avenir Next LT Pro;font-weight:700;}.cls-4{letter-spacing:-0.02em;}.cls-5{font-size:200px;font-family:MyriadPro-Regular, Myriad Pro;letter-spacing:0.32em;}.cls-14,.cls-5{fill:#f4b335;}.cls-6{letter-spacing:0.33em;}.cls-7{letter-spacing:0.3em;}.cls-8{letter-spacing:0.32em;}.cls-9{letter-spacing:0.31em;}.cls-10{font-size:80px;font-family:Humanist521BT-Light, Humanst521 Lt BT;font-weight:300;letter-spacing:0.16em;}.cls-10,.cls-16{fill:#4992b7;}.cls-11{letter-spacing:0.01em;}.cls-12{letter-spacing:0.12em;}.cls-13{fill:#1b5f89;}.cls-17,.cls-18{fill:none;}.cls-17{stroke:#f4b335;stroke-linecap:round;stroke-miterlimit:10;stroke-width:52px;}.cls-19{fill:#f5bd4f;}.cls-20{fill:#ededed;opacity:0.62;}</style></defs><title>Skylight Mortgage1</title><text class="cls-1" transform="translate(656.17 292.18)">S<tspan class="cls-2" x="127.42" y="0">K</tspan><tspan x="267.77" y="0">Y</tspan><tspan class="cls-3" x="403.65" y="0">LIGH</tspan><tspan class="cls-4" x="940.3" y="0">T</tspan></text><text class="cls-5" transform="translate(681.17 438.27) scale(0.7)">MO<tspan class="cls-6" x="427.8" y="0">R</tspan><tspan class="cls-7" x="601.79" y="0">T</tspan><tspan class="cls-8" x="760.39" y="0">G</tspan><tspan class="cls-9" x="954.19" y="0">A</tspan><tspan class="cls-8" x="1138.19" y="0">GE</tspan></text><text class="cls-10" transform="translate(696.79 563.45)">“Securing <tspan class="cls-11" x="434.21" y="0">Y</tspan><tspan x="478.77" y="0">our </tspan><tspan class="cls-12" x="657.62" y="0">F</tspan><tspan x="703.32" y="0">uture”</tspan></text><path class="cls-13" d="M746.91,723.59H1761.7c4.82,0,4.83-7.5,0-7.5H746.91c-4.83,0-4.84,7.5,0,7.5Z" transform="translate(-74.47 -239.89)"/><path class="cls-14" d="M611.62,463.72A169.08,169.08,0,0,1,499.94,622.66a165.33,165.33,0,0,1-37.55,8.81V392l-94.87-79.48a168.94,168.94,0,0,1,244.1,151.23Z" transform="translate(-74.47 -239.89)"/><path class="cls-15" d="M462.39,392V810.3l-80.21,25.1-15,4.69-20.68-5.91h0L272,812.89V392l37-31.41.05-.06,53.6-45.5,0,0,3.85-3.27,1,.8Z" transform="translate(-74.47 -239.89)"/><polygon class="cls-13" points="157.39 273.83 157.39 558.75 80.97 504.36 80.97 355.42 157.39 273.83"/><polygon class="cls-16" points="425.48 273.83 425.48 558.75 500.59 508.24 500.59 354.13 425.48 273.83"/><path class="cls-17" d="M647.41,562.07c0,151-122.44,273.47-273.47,273.47S100.47,713.1,100.47,562.07" transform="translate(-74.47 -239.89)"/><rect class="cls-18" x="367" y="254.25" width="15.33" height="28.6" transform="translate(-150.47 -68.25) rotate(-23.5)"/><polygon class="cls-19" points="312.93 38.72 294.5 15.54 298.87 44.83 312.93 38.72"/><rect class="cls-18" x="640.4" y="459.47" width="15.33" height="28.6" transform="translate(61.1 851.78) rotate(-86.5)"/><polygon class="cls-19" points="558.85 240.66 587.87 234.75 559.79 225.36 558.85 240.66"/><rect class="cls-18" x="634.25" y="434.66" width="28.6" height="15.33" transform="translate(-113.85 -175.74) rotate(-5.5)"/><polygon class="cls-19" points="560.58 211.42 588.32 201.06 559.12 196.17 560.58 211.42"/><rect class="cls-18" x="629.81" y="403.52" width="28.6" height="15.33" transform="translate(-156.89 -65.57) rotate(-14.5)"/><polygon class="cls-19" points="557.72 182.28 583.49 167.71 553.88 167.44 557.72 182.28"/><rect class="cls-18" x="620.56" y="373.45" width="28.6" height="15.33" transform="translate(-173.77 44.82) rotate(-23.5)"/><polygon class="cls-19" points="550.34 153.95 573.51 135.52 544.23 139.89 550.34 153.95"/><rect class="cls-18" x="606.72" y="345.2" width="28.6" height="15.33" transform="translate(-166.81 149) rotate(-32.5)"/><polygon class="cls-19" points="538.61 127.12 558.62 105.29 530.37 114.19 538.61 127.12"/><rect class="cls-18" x="588.63" y="319.47" width="28.6" height="15.33" transform="translate(-139.88 241.7) rotate(-41.5)"/><polygon class="cls-19" points="522.83 102.45 539.17 77.76 512.67 90.97 522.83 102.45"/><rect class="cls-18" x="566.73" y="296.88" width="28.6" height="15.33" transform="translate(-98.02 319.24) rotate(-50.5)"/><polygon class="cls-19" points="503.38 80.56 515.66 53.62 491.56 70.81 503.38 80.56"/><rect class="cls-18" x="541.57" y="278" width="28.6" height="15.33" transform="translate(-46.87 379.71) rotate(-59.5)"/><polygon class="cls-19" points="480.75 61.98 488.67 33.45 467.55 54.2 480.75 61.98"/><rect class="cls-18" x="513.77" y="263.28" width="28.6" height="15.33" transform="translate(7.95 423.05) rotate(-68.5)"/><polygon class="cls-19" points="455.5 47.16 458.85 17.75 441.24 41.55 455.5 47.16"/><rect class="cls-18" x="484.01" y="253.1" width="28.6" height="15.33" transform="translate(61.39 450.9) rotate(-77.5)"/><polygon class="cls-19" points="428.23 36.48 426.94 6.9 413.27 33.17 428.23 36.48"/><rect class="cls-18" x="453.02" y="247.69" width="28.6" height="15.33" transform="translate(109.42 466.3) rotate(-86.5)"/><polygon class="cls-19" points="399.63 30.2 393.73 1.19 384.33 29.27 399.63 30.2"/><rect class="cls-18" x="428.21" y="240.56" width="15.33" height="28.6" transform="translate(-96.87 -196.97) rotate(-5.5)"/><polygon class="cls-19" points="370.4 28.47 360.03 0.73 355.14 29.94 370.4 28.47"/><rect class="cls-18" x="397.06" y="245" width="15.33" height="28.6" transform="translate(-126.49 -130.33) rotate(-14.5)"/><polygon class="cls-19" points="341.26 31.33 326.68 5.56 326.42 35.17 341.26 31.33"/><polygon class="cls-20" points="431.43 91.65 437.63 88.39 436.44 95.3 441.46 100.19 434.53 101.19 431.43 107.47 428.33 101.19 421.4 100.19 426.41 95.3 425.23 88.39 431.43 91.65"/><polygon class="cls-20" points="467.24 112.5 473.65 109.12 472.43 116.26 477.61 121.32 470.44 122.36 467.24 128.86 464.03 122.36 456.86 121.32 462.05 116.26 460.82 109.12 467.24 112.5"/><polygon class="cls-20" points="449.13 156.82 455.94 153.24 454.64 160.82 460.14 166.19 452.53 167.29 449.13 174.19 445.73 167.29 438.12 166.19 443.63 160.82 442.32 153.24 449.13 156.82"/><polygon class="cls-20" points="496.26 177.76 503.06 174.19 501.76 181.76 507.27 187.13 499.66 188.24 496.26 195.13 492.86 188.24 485.25 187.13 490.75 181.76 489.45 174.19 496.26 177.76"/><polygon class="cls-20" points="404.29 101.96 411.95 97.93 410.49 106.47 416.69 112.51 408.12 113.76 404.29 121.52 400.45 113.76 391.89 112.51 398.09 106.47 396.62 97.93 404.29 101.96"/><polygon class="cls-20" points="438.12 119.66 446.53 115.24 444.93 124.61 451.73 131.24 442.32 132.61 438.12 141.13 433.91 132.61 424.51 131.24 431.31 124.61 429.71 115.24 438.12 119.66"/><polygon class="cls-20" points="483.87 145.55 492.28 141.13 490.68 150.5 497.48 157.13 488.07 158.5 483.87 167.02 479.66 158.5 470.26 157.13 477.06 150.5 475.46 141.13 483.87 145.55"/><polygon class="cls-20" points="387.92 71.59 395.85 67.42 394.34 76.25 400.75 82.5 391.89 83.79 387.92 91.82 383.96 83.79 375.1 82.5 381.51 76.25 380 67.42 387.92 71.59"/><path class="cls-14" d="M611.62,463.72A169.08,169.08,0,0,1,499.94,622.66a165.33,165.33,0,0,1-37.55,8.81V392l-94.87-79.48a168.94,168.94,0,0,1,244.1,151.23Z" transform="translate(-74.47 -239.89)"/><path class="cls-15" d="M462.39,392V810.3l-80.21,25.1-15,4.69-20.68-5.91h0L272,812.89V392l37-31.41.05-.06,53.6-45.5,0,0,3.85-3.27,1,.8Z" transform="translate(-74.47 -239.89)"/><polygon class="cls-13" points="157.39 273.83 157.39 558.75 80.97 504.36 80.97 355.42 157.39 273.83"/><polygon class="cls-16" points="425.48 273.83 425.48 558.75 500.59 508.24 500.59 354.13 425.48 273.83"/><path class="cls-17" d="M647.41,562.07c0,151-122.44,273.47-273.47,273.47S100.47,713.1,100.47,562.07" transform="translate(-74.47 -239.89)"/><rect class="cls-18" x="367" y="254.25" width="15.33" height="28.6" transform="translate(-150.47 -68.25) rotate(-23.5)"/><polygon class="cls-19" points="312.93 38.72 294.5 15.54 298.87 44.83 312.93 38.72"/><rect class="cls-18" x="640.4" y="459.47" width="15.33" height="28.6" transform="translate(61.1 851.78) rotate(-86.5)"/><polygon class="cls-19" points="558.85 240.66 587.87 234.75 559.79 225.36 558.85 240.66"/><rect class="cls-18" x="634.25" y="434.66" width="28.6" height="15.33" transform="translate(-113.85 -175.74) rotate(-5.5)"/><polygon class="cls-19" points="560.58 211.42 588.32 201.06 559.12 196.17 560.58 211.42"/><rect class="cls-18" x="629.81" y="403.52" width="28.6" height="15.33" transform="translate(-156.89 -65.57) rotate(-14.5)"/><polygon class="cls-19" points="557.72 182.28 583.49 167.71 553.88 167.44 557.72 182.28"/><rect class="cls-18" x="620.56" y="373.45" width="28.6" height="15.33" transform="translate(-173.77 44.82) rotate(-23.5)"/><polygon class="cls-19" points="550.34 153.95 573.51 135.52 544.23 139.89 550.34 153.95"/><rect class="cls-18" x="606.72" y="345.2" width="28.6" height="15.33" transform="translate(-166.81 149) rotate(-32.5)"/><polygon class="cls-19" points="538.61 127.12 558.62 105.29 530.37 114.19 538.61 127.12"/><rect class="cls-18" x="588.63" y="319.47" width="28.6" height="15.33" transform="translate(-139.88 241.7) rotate(-41.5)"/><polygon class="cls-19" points="522.83 102.45 539.17 77.76 512.67 90.97 522.83 102.45"/><rect class="cls-18" x="566.73" y="296.88" width="28.6" height="15.33" transform="translate(-98.02 319.24) rotate(-50.5)"/><polygon class="cls-19" points="503.38 80.56 515.66 53.62 491.56 70.81 503.38 80.56"/><rect class="cls-18" x="541.57" y="278" width="28.6" height="15.33" transform="translate(-46.87 379.71) rotate(-59.5)"/><polygon class="cls-19" points="480.75 61.98 488.67 33.45 467.55 54.2 480.75 61.98"/><rect class="cls-18" x="513.77" y="263.28" width="28.6" height="15.33" transform="translate(7.95 423.05) rotate(-68.5)"/><polygon class="cls-19" points="455.5 47.16 458.85 17.75 441.24 41.55 455.5 47.16"/><rect class="cls-18" x="484.01" y="253.1" width="28.6" height="15.33" transform="translate(61.39 450.9) rotate(-77.5)"/><polygon class="cls-19" points="428.23 36.48 426.94 6.9 413.27 33.17 428.23 36.48"/><rect class="cls-18" x="453.02" y="247.69" width="28.6" height="15.33" transform="translate(109.42 466.3) rotate(-86.5)"/><polygon class="cls-19" points="399.63 30.2 393.73 1.19 384.33 29.27 399.63 30.2"/><rect class="cls-18" x="428.21" y="240.56" width="15.33" height="28.6" transform="translate(-96.87 -196.97) rotate(-5.5)"/><polygon class="cls-19" points="370.4 28.47 360.03 0.73 355.14 29.94 370.4 28.47"/><rect class="cls-18" x="397.06" y="245" width="15.33" height="28.6" transform="translate(-126.49 -130.33) rotate(-14.5)"/><polygon class="cls-19" points="341.26 31.33 326.68 5.56 326.42 35.17 341.26 31.33"/><polygon class="cls-20" points="431.43 91.65 437.63 88.39 436.44 95.3 441.46 100.19 434.53 101.19 431.43 107.47 428.33 101.19 421.4 100.19 426.41 95.3 425.23 88.39 431.43 91.65"/><polygon class="cls-20" points="467.24 112.5 473.65 109.12 472.43 116.26 477.61 121.32 470.44 122.36 467.24 128.86 464.03 122.36 456.86 121.32 462.05 116.26 460.82 109.12 467.24 112.5"/><polygon class="cls-20" points="449.13 156.82 455.94 153.24 454.64 160.82 460.14 166.19 452.53 167.29 449.13 174.19 445.73 167.29 438.12 166.19 443.63 160.82 442.32 153.24 449.13 156.82"/><polygon class="cls-20" points="496.26 177.76 503.06 174.19 501.76 181.76 507.27 187.13 499.66 188.24 496.26 195.13 492.86 188.24 485.25 187.13 490.75 181.76 489.45 174.19 496.26 177.76"/><polygon class="cls-20" points="404.29 101.96 411.95 97.93 410.49 106.47 416.69 112.51 408.12 113.76 404.29 121.52 400.45 113.76 391.89 112.51 398.09 106.47 396.62 97.93 404.29 101.96"/><polygon class="cls-20" points="438.12 119.66 446.53 115.24 444.93 124.61 451.73 131.24 442.32 132.61 438.12 141.13 433.91 132.61 424.51 131.24 431.31 124.61 429.71 115.24 438.12 119.66"/><polygon class="cls-20" points="483.87 145.55 492.28 141.13 490.68 150.5 497.48 157.13 488.07 158.5 483.87 167.02 479.66 158.5 470.26 157.13 477.06 150.5 475.46 141.13 483.87 145.55"/><polygon class="cls-20" points="387.92 71.59 395.85 67.42 394.34 76.25 400.75 82.5 391.89 83.79 387.92 91.82 383.96 83.79 375.1 82.5 381.51 76.25 380 67.42 387.92 71.59"/></svg>