<svg id="Logo_1_Flat" data-name="Logo 1 Flat" xmlns="http://www.w3.org/2000/svg" viewBox="0 0 1617.76 497.16"><defs><style>.cls-1{fill:orange;}.cls-2{fill:#f87b0d;}.cls-3{fill:#98ae42;}.cls-4{fill:#e2442b;}.cls-5{fill:#2f90b0;}.cls-6{fill:#febe05;}.cls-7{fill:#35b7b7;}.cls-8{fill:#bcd33a;}.cls-9{fill:#3263a5;}.cls-10{fill:#3161a1;}.cls-11{fill:#9aad41;}</style></defs><title>Logo 1 Flat Vector</title><path class="cls-1" d="M728.46,457.09h139a12.12,12.12,0,0,1,12.11,12.12h0a12.11,12.11,0,0,1-12.11,12.11H813.61V652a15.48,15.48,0,0,1-15.48,15.48h0A15.48,15.48,0,0,1,782.65,652V481.32H728.46a12.12,12.12,0,0,1-12.12-12.11h0A12.12,12.12,0,0,1,728.46,457.09Z" transform="translate(-151.9 -288.01)"/><path class="cls-1" d="M919.29,491.42c0-15.48-2.36-17.5-13.46-17.5h0a8.08,8.08,0,0,1-8.08-8.08v-.67a8.08,8.08,0,0,1,8.08-8.08h72.69c18.17,0,34.67.68,48.46,5.05,19.19,6.4,31.3,22.55,31.3,43.75,0,20.87-13.8,37.36-37.69,42.41,22.55,8.08,28.61,16.83,36.35,40.05l27.47,128.25a16.29,16.29,0,0,1-15.93,19.7h0a16.3,16.3,0,0,1-15.88-12.64c-8-34.56-18.59-107.28-25.62-126.9-.67-2-2.35-6.39-3-8.41-10.09-28.61-16.82-27.93-47.45-27.93H949.91v91.71a15.31,15.31,0,0,1-15.31,15.31h0a15.31,15.31,0,0,1-15.31-15.31V491.42Zm30.62-11.11V538.2h30c25.24,0,45.43-3.36,45.43-30.29,0-25.91-19.52-27.6-48.46-27.6Z" transform="translate(-151.9 -288.01)"/><path class="cls-1" d="M1108.77,457.09h45.1V652a15.48,15.48,0,0,1-15.48,15.48h0A15.48,15.48,0,0,1,1122.91,652V493.78c0-17.17-1.35-19.86-13.8-19.86h-.34a8.41,8.41,0,0,1-8.41-8.41h0A8.41,8.41,0,0,1,1108.77,457.09Z" transform="translate(-151.9 -288.01)"/><path class="cls-1" d="M1221.18,667.44v-174c0-19.18-1.69-19.52-13.46-19.52h-1.35a8.41,8.41,0,0,1-8.41-8.41h0a8.41,8.41,0,0,1,8.41-8.42H1274c29.28,0,49.47,1,64.28,9.43,15.48,8.75,26.25,27.26,26.25,46.78,0,21.87-11.44,39.37-33,44.42v.34c24.9,7.07,37.69,25.24,37.69,50.48,0,26.59-14.47,47.79-38.7,55.53-9.76,3-23.23,3.37-39,3.37Zm31-120.82h35.67c27.26,0,45.44-3.37,45.44-31.3,0-30.63-23.9-35-57.55-35h-23.56Zm0,97.6h31.3c28.61,0,54.52,0,54.52-38.37,0-35.68-26.92-37-54.52-37h-31.3Z" transform="translate(-151.9 -288.01)"/><path class="cls-1" d="M1403.25,465.51h0a8.42,8.42,0,0,1,8.41-8.42h139v23.22h-93.9v51.5h70V554h-70v90.2h95.92v23.22H1425.8V492.09c0-17.5-4.37-18.17-13.8-18.17h-.34A8.42,8.42,0,0,1,1403.25,465.51Z" transform="translate(-151.9 -288.01)"/><path class="cls-1" d="M1604.18,491.42c0-15.48-2.36-17.5-13.47-17.5h0a8.07,8.07,0,0,1-8.07-8.08v-.67a8.07,8.07,0,0,1,8.07-8.08h72.7c18.17,0,34.66.68,48.46,5.05,19.19,6.4,31.3,22.55,31.3,43.75,0,20.87-13.8,37.36-37.69,42.41,22.55,8.08,28.61,16.83,36.35,40.05l27.46,128.25a16.28,16.28,0,0,1-15.92,19.7h0a16.29,16.29,0,0,1-15.88-12.64c-8-34.56-18.59-107.28-25.62-126.9-.67-2-2.35-6.39-3-8.41-10.09-28.61-16.82-27.93-47.45-27.93H1634.8v91.71a15.31,15.31,0,0,1-15.31,15.31h0a15.31,15.31,0,0,1-15.31-15.31V491.42Zm30.62-11.11V538.2h30c25.25,0,45.44-3.36,45.44-30.29,0-25.91-19.52-27.6-48.46-27.6Z" transform="translate(-151.9 -288.01)"/><path class="cls-2" d="M475.53,305.77l-33.8,33.8v81.11a127.08,127.08,0,0,0-68-3.45V340.55l-34.78-34.78L352.75,292l47.58,47.58h13.81L461.71,292Z" transform="translate(-151.9 -288.01)"/><circle class="cls-2" cx="255.82" cy="19.97" r="19.97"/><path class="cls-3" d="M605.32,408.22l-47.61,4.17-50,59.63a126.59,126.59,0,0,0-50.89-45.18L505,369.41h0l-4.29-49,19.46-1.7,5.87,67,10.58,8.87h0l67-5.86Z" transform="translate(-151.9 -288.01)"/><circle class="cls-3" cx="400.06" cy="78.32" r="19.97"/><path class="cls-4" d="M650.1,554.12l-11.21,16-39.16-27.42-72.87,12.85a127,127,0,0,0,.91-15.2,125.65,125.65,0,0,0-11.21-52.05L587,475.89l28.21-40.29,16,11.21-38.59,55.11h0l2.39,13.6Z" transform="translate(-151.9 -288.01)"/><circle class="cls-4" cx="473.04" cy="215.72" r="19.97"/><path class="cls-5" d="M562,645.68l17.41,65-18.87,5.05-12.37-46.17h0l-61.82-35.7a126.23,126.23,0,0,0,36.25-57.61l58.73,33.92h0l47.51-12.73,5,18.87-65,17.41h0Z" transform="translate(-151.9 -288.01)"/><circle class="cls-5" cx="440.63" cy="367.9" r="19.97"/><path class="cls-6" d="M535.28,730.19,527,747.9l-61-28.44-13,4.73-28.44,61-17.71-8.26,20.2-43.32-24.39-67a125.47,125.47,0,0,0,65.47-19l22.51,61.84h0Z" transform="translate(-151.9 -288.01)"/><circle class="cls-6" cx="317.99" cy="463.64" r="19.97"/><path class="cls-7" d="M357.5,727.18l20.78,44.57L360.57,780l-28.43-61h0l-13-4.73-61,28.44L249.92,725l43.32-20.19h0l25.27-69.42a125.78,125.78,0,0,0,61.7,29.36Z" transform="translate(-151.9 -288.01)"/><circle class="cls-7" cx="162.5" cy="458.15" r="19.97"/><path class="cls-1" d="M304.06,620.5l-60,34.66L231.3,702.67l-18.87-5.06,17.41-65-6.91-12-65-17.41L163,584.37l46.16,12.37h0l67.38-38.89A125.5,125.5,0,0,0,304.06,620.5Z" transform="translate(-151.9 -288.01)"/><circle class="cls-1" cx="46.91" cy="353.99" r="19.97"/><path class="cls-8" d="M294.18,474a125.56,125.56,0,0,0-18.83,65.75l-72-12.69h0l-40.28,28.21-11.21-16L207,500.67l2.4-13.59L170.82,432l16-11.21,27.41,39.15Z" transform="translate(-151.9 -288.01)"/><circle class="cls-8" cx="25.32" cy="199.91" r="19.97"/><path class="cls-9" d="M359.07,421.48A126.3,126.3,0,0,0,303.43,461l-48.81-58.17h0l-49-4.28,1.71-19.47,67,5.86h0l10.58-8.86,5.87-67,19.46,1.7-4.16,47.62Z" transform="translate(-151.9 -288.01)"/><circle class="cls-9" cx="107.83" cy="67.99" r="19.97"/><path class="cls-1" d="M461.74,494.46a5.87,5.87,0,0,1-1,2.22c-7.28,9-24,14.1-42.7,15.67V614.19a6.73,6.73,0,0,1-6.73,6.73H394a6.73,6.73,0,0,1-6.73-6.73V511.87c-18.27-2.05-34.74-7.23-42.7-15.19-1-1-1.51-3-1.68-5.32a11.57,11.57,0,0,1,15.42-11.67q47.58,16.86,88,1.26C455,477.59,464.13,485.42,461.74,494.46Z" transform="translate(-151.9 -288.01)"/><circle class="cls-1" cx="250.57" cy="169.09" r="21.92"/><path class="cls-10" d="M373,536.8a3.64,3.64,0,0,1-.64,1.4c-4.59,5.69-15.11,8.9-26.92,9.88v64.21a4.24,4.24,0,0,1-4.24,4.24H330.23a4.24,4.24,0,0,1-4.24-4.24V547.78c-11.52-1.3-21.91-4.57-26.92-9.58a5.45,5.45,0,0,1-1.06-3.35,7.29,7.29,0,0,1,9.72-7.36q30,10.63,55.47.8C368.7,526.17,374.48,531.1,373,536.8Z" transform="translate(-151.9 -288.01)"/><circle class="cls-10" cx="183.7" cy="225.24" r="13.82"/><path class="cls-11" d="M507.23,536.8a3.64,3.64,0,0,1-.64,1.4c-4.59,5.69-15.11,8.9-26.92,9.88v64.21a4.24,4.24,0,0,1-4.24,4.24H464.49a4.24,4.24,0,0,1-4.25-4.24V547.78c-11.52-1.3-21.9-4.57-26.91-9.58a5.51,5.51,0,0,1-1.07-3.35,7.3,7.3,0,0,1,9.73-7.36q30,10.63,55.46.8C503,526.17,508.74,531.1,507.23,536.8Z" transform="translate(-151.9 -288.01)"/><circle class="cls-11" cx="317.96" cy="225.24" r="13.82"/></svg>