<svg width="100" height="96" viewBox="0 0 100 96" fill="none" xmlns="http://www.w3.org/2000/svg">
<path d="M100 11.3639C96.3215 13.292 92.3678 14.594 88.2167 15.1798C92.4524 12.1798 95.7057 7.43056 97.2372 1.77194C93.274 4.54818 88.8829 6.56634 84.2099 7.65271C80.4674 2.94203 75.1349 0 69.2343 0C57.9032 0 48.7174 10.8505 48.7174 24.2342C48.7174 26.1348 48.8991 27.9841 49.2486 29.7577C32.1976 28.7469 17.0803 19.0986 6.96181 4.43546C5.19548 8.01478 4.1839 12.1783 4.1839 16.6202C4.1839 25.0275 7.80585 32.4452 13.3106 36.7922C9.94746 36.6666 6.78394 35.5755 4.0183 33.7602C4.01635 33.8615 4.01635 33.9629 4.01635 34.0659C4.01635 45.808 11.0885 55.6028 20.474 57.8301C18.7521 58.3838 16.9393 58.6799 15.0687 58.6799C13.7466 58.6799 12.4611 58.527 11.2084 58.2454C13.8194 67.8727 21.3965 74.8799 30.3739 75.0764C23.3521 81.5766 14.5061 85.4504 4.89372 85.4504C3.23774 85.4504 1.60478 85.3362 0 85.1124C9.07971 91.9894 19.863 96 31.4495 96C69.1866 96 89.8229 59.071 89.8229 27.0442C89.8229 25.9933 89.8025 24.9488 89.7631 23.909C93.7712 20.4924 97.2507 16.2243 100 11.3639Z" fill="white"/>
</svg>
