<svg width="96" height="96" viewBox="0 0 96 96" fill="none" xmlns="http://www.w3.org/2000/svg">
<path d="M67.1624 40.4517C61.7431 40.4517 60.0011 45.6775 59.614 48.7742V48.9678L58.8398 51.871C61.1624 53.8065 64.0657 55.1613 66.9689 55.1613C70.8398 55.1613 74.3237 51.871 74.5173 47.6129C74.5173 43.742 71.2269 40.4517 67.1624 40.4517Z" fill="white"/>
<path d="M48 0C21.4839 0 0 21.4839 0 48C0 74.5161 21.4839 96 48 96C74.5161 96 96 74.5161 96 48C96 21.4839 74.5161 0 48 0ZM67.1613 62.7097C63.2903 62.7097 60 61.5484 57.0968 59.8064L53.8065 75.2903H46.2581L50.9032 54C48.9677 51.2903 47.0323 48.1936 45.6774 45.2903V48.5806C45.6774 56.5161 39.2903 62.9032 31.5484 62.9032C23.8065 62.9032 17.4194 56.5161 17.4194 48.5806V29.2258H24.7742V48.5806C24.7742 52.4516 27.871 55.5484 31.7419 55.5484C35.6129 55.5484 38.7097 52.4516 38.7097 48.5806V29.2258H46.0645C47.6129 34.0645 50.129 39.871 53.4194 45.0968C55.3548 37.7419 60.7742 33.2903 67.5484 33.2903C75.4839 33.2903 82.0645 39.871 82.0645 47.8064C81.6774 56.129 75.0968 62.7097 67.1613 62.7097Z" fill="white"/>
</svg>
