<svg id="Logo_1_Main" data-name="Logo 1 Main" xmlns="http://www.w3.org/2000/svg" viewBox="0 0 1741.71 396.83"><defs><style>.cls-1{font-size:284.24px;font-family:Assistant-SemiBold, Assistant;font-weight:600;letter-spacing:0.07em;}.cls-1,.cls-8{fill:#1b4a7e;}.cls-2{letter-spacing:0.06em;}.cls-3{letter-spacing:0.07em;}.cls-4{font-size:96.91px;font-family:Assistant-Light, Assistant;font-weight:300;letter-spacing:0.09em;}.cls-4,.cls-7{fill:#4ba7d8;}.cls-5{letter-spacing:0.07em;}.cls-6{letter-spacing:0.08em;}</style></defs><title>Logo 1 Main Vector</title><text class="cls-1" transform="translate(890.13 273.38)">ENI<tspan class="cls-2" x="474.39" y="0">V</tspan><tspan class="cls-3" x="641.24" y="0">O</tspan></text><text class="cls-4" transform="translate(706.41 372.31)">The Right Sp<tspan class="cls-5" x="599.48" y="0">o</tspan><tspan x="658.59" y="0">t </tspan><tspan class="cls-6" x="725.75" y="0">f</tspan><tspan x="759.18" y="0">or All</tspan></text><path class="cls-7" d="M857.61,561.7,850,569.35l-79.85,79.86-16.74,16.73-7.31,7.32-7.31,7.31L569.52,593.26,419,680.76l-11.57-11.57L324,585.77l-50.2-50.21L421.3,350.89l71.3,61,.07.06,6.11,5.22a1.67,1.67,0,0,1,.24-.31l9.25,7.14,72.19,55.9,7-6.82L710,354.6l3.83-3.71Z" transform="translate(-89.15 -350.89)"/><polygon class="cls-8" points="979.27 0 768.47 210.81 624.65 0 979.27 0"/><polygon class="cls-8" points="332.15 0 184.63 184.66 0 0 332.15 0"/><polygon class="cls-8" points="480.37 242.36 467.35 259.2 376.5 376.53 329.86 329.87 480.37 242.36"/><polygon class="cls-8" points="649.62 329.67 625.13 354.19 603.8 375.5 602.77 376.53 480.37 242.36 649.62 329.67"/></svg>