<svg width="96" height="96" viewBox="0 0 96 96" fill="none" xmlns="http://www.w3.org/2000/svg">
<path d="M0 96L6.78137 71.3486C2.59742 64.135 0.397502 55.9516 0.40018 47.5679C0.410627 21.3389 21.8536 0 48.2001 0C60.9875 0.00519817 72.9888 4.95918 82.0134 13.9521C91.0379 22.9424 96.0053 34.894 96 47.6056C95.9895 73.8333 74.5452 95.1748 48.2014 95.1748C48.2001 95.1748 48.2028 95.1748 48.2014 95.1748H48.1805C40.1813 95.1721 32.3209 93.1742 25.3393 89.3838L0 96ZM26.5125 80.7723L27.9642 81.6288C34.063 85.2317 41.0563 87.1373 48.1844 87.1411H48.2014C70.0983 87.1411 87.9211 69.4039 87.9304 47.6017C87.9342 37.0377 83.8052 27.1038 76.3043 19.6297C68.8035 12.1572 58.8282 8.03889 48.2171 8.03489C26.3018 8.03489 8.47907 25.7709 8.4713 47.5704C8.46728 55.0404 10.5678 62.3165 14.5451 68.6113L15.4895 70.1081L11.4768 84.698L26.5125 80.7723Z" fill="white"/>
<path fill-rule="evenodd" clip-rule="evenodd" d="M72.2824 58.9166C71.9828 58.4207 71.1877 58.1239 69.9936 57.5277C68.7981 56.9329 62.9269 54.0576 61.8322 53.6607C60.7374 53.265 59.941 53.0658 59.1445 54.2555C58.348 55.4465 56.0592 58.1239 55.3633 58.9166C54.6662 59.7094 53.9691 59.8096 52.7749 59.2147C51.5808 58.6199 47.733 57.3638 43.171 53.3144C39.6201 50.1631 37.2227 46.27 36.5269 45.0804C35.8298 43.8907 36.4523 43.2477 37.05 42.6554C37.5876 42.1217 38.2442 41.2665 38.8419 40.5728C39.4383 39.879 39.6372 39.3819 40.036 38.5892C40.4336 37.7964 40.2347 37.1013 39.9366 36.5066C39.6372 35.9118 37.2489 30.0609 36.2536 27.6816C35.2845 25.3647 34.2995 25.6783 33.5671 25.6406C32.8713 25.6067 32.0735 25.599 31.277 25.599C30.4817 25.599 29.1869 25.897 28.0922 27.0867C26.9976 28.2763 23.9121 31.1517 23.9121 37.0024C23.9121 42.8533 28.1917 48.5049 28.7894 49.2976C29.3858 50.0916 37.2109 62.0977 49.1926 67.2458C52.0413 68.4705 54.266 69.202 56.0016 69.7501C58.862 70.6547 61.466 70.5271 63.5233 70.2212C65.8187 69.8788 70.59 67.3459 71.5853 64.5695C72.5805 61.792 72.5805 59.4125 72.2824 58.9166Z" fill="white"/>
</svg>
