<svg id="Logo_Main_Flat" data-name="Logo Main Flat" xmlns="http://www.w3.org/2000/svg" viewBox="0 0 1506.82 492.37"><defs><style>.cls-1{fill:teal;}.cls-2{fill:#ffdb58;}.cls-3{fill:#fed000;}</style></defs><title>Logo Main Flat Vector for Web</title><path class="cls-1" d="M886.57,1158.4l6.26-50.94h24.88l-.29,3.13H896.1l-2.55,20.66h19.29l-.44,3.06H893.19l-2.62,21H912l-.37,3.13Z" transform="translate(-246.59 -753.81)"/><path class="cls-1" d="M931,1158.62l-6.76-37.34H928l5.75,33.77h.51c4.44-3.28,8.29-8.44,11.64-15.36s5-13,4.73-18.41h3.79c.21,6.26-1.68,13-5.61,20.38s-8.66,12.95-14.19,17Z" transform="translate(-246.59 -753.81)"/><path class="cls-1" d="M962.68,1144.72c0-6.92,1.67-12.67,5-17.32a15.32,15.32,0,0,1,13.24-7c9,0,13.53,4.8,13.53,14.34,0,6.91-1.6,12.66-4.87,17.39s-7.71,7.13-13.17,7.13C967.26,1159.27,962.68,1154.39,962.68,1144.72Zm24.16,5.24a28.38,28.38,0,0,0,3.93-15.07c0-7.78-3.35-11.64-10-11.64-8.81-.07-14.78,10.84-14.56,21.47,0,7.78,3.35,11.71,10.12,11.71C980.65,1156.43,984.14,1154.25,986.84,1150Z" transform="translate(-246.59 -753.81)"/><path class="cls-1" d="M1006.33,1158.4l6.77-54.43,3.64-.88-6.84,55.31Z" transform="translate(-246.59 -753.81)"/><path class="cls-1" d="M1033.4,1158.62l-6.77-37.34h3.79l5.75,33.77h.5c4.44-3.28,8.3-8.44,11.65-15.36s5-13,4.73-18.41h3.78c.22,6.26-1.67,13-5.6,20.38s-8.66,12.95-14.19,17Z" transform="translate(-246.59 -753.81)"/><path class="cls-1" d="M1085.72,1154.32a24.81,24.81,0,0,0,6.18-4.51l1.53,2a22.33,22.33,0,0,1-6.77,5.09,18.59,18.59,0,0,1-9.09,2.33c-9,0-12.45-5.09-12.45-14.48a28,28,0,0,1,5.61-16.81c3.71-5,8.44-7.57,14-7.57,7.06,0,10.63,2.84,10.63,8.52,0,3-1.46,5.6-5.17,8.22s-11.28,4.66-21.47,5.46c-.07,1.09-.14,1.89-.14,2.54,0,7.57,2.91,11.21,9.6,11.21A15.79,15.79,0,0,0,1085.72,1154.32Zm-11.14-26.19a25.13,25.13,0,0,0-5.45,11.86c6.84-.44,12.37-1.6,16.59-3.42s6.33-4.37,6.33-7.5c0-3.86-2.55-5.82-7.57-5.82A12.49,12.49,0,0,0,1074.58,1128.13Z" transform="translate(-246.59 -753.81)"/><path class="cls-1" d="M1151.42,1138.09a52.63,52.63,0,0,1-15.64,20.53h-3.42l-6.85-37.34h3.79l5.75,33.77h.51a44.67,44.67,0,0,0,10.11-12.08c3-5,4.51-9,4.51-11.64a51.36,51.36,0,0,0-1.52-10h3.71l5.75,33.77h.51c4.43-3.28,8.29-8.44,11.64-15.36s5-13,4.73-18.41h3.78c.22,6.19-1.67,13-5.6,20.31s-8.73,13-14.26,17h-3.42l-3.64-20.53Z" transform="translate(-246.59 -753.81)"/><path class="cls-1" d="M1188,1158.4l4.51-36.75,3.71-.88-4.66,37.63Zm4.65-49.78a3.32,3.32,0,0,1,6.63-.14,3.21,3.21,0,0,1-.88,2.4C1196.46,1112.7,1192.31,1111.53,1192.67,1108.62Z" transform="translate(-246.59 -753.81)"/><path class="cls-1" d="M1210.57,1152.87a25.8,25.8,0,0,1,.22-3.35l3.13-25.25h-7.28l.44-3h7.2l1.46-11.64,3.49-.8-1.45,12.44h12.59l-.44,3h-12.52l-3.13,25a29.44,29.44,0,0,0-.21,3.13c0,2.54.94,3.85,2.83,3.85a8.94,8.94,0,0,0,3.93-1.23,20.3,20.3,0,0,0,3.71-2.33,7.28,7.28,0,0,0,1.46-1.31l1.31,2.4c-3.2,2.84-7.93,5.53-11.64,5.53C1212.25,1159.27,1210.57,1157.16,1210.57,1152.87Z" transform="translate(-246.59 -753.81)"/><path class="cls-1" d="M1237.2,1158.4,1244,1104l3.64-.88-3.86,31.29h.51a41.46,41.46,0,0,1,7.93-10q4.49-3.93,8.73-3.93c4.95,0,7.43,3.06,7.43,9.24a37.88,37.88,0,0,1-.29,4.08L1265,1158.4h-3.49l3-24.24a28.49,28.49,0,0,0,.22-3.34c0-5.46-1.46-7.28-4.88-7.28q-2.94,0-7,3.71a39.28,39.28,0,0,0-6.84,8.3c-2,3-3.06,5.53-3.28,7.35l-2,15.5Z" transform="translate(-246.59 -753.81)"/><path class="cls-1" d="M1309,1158.4l5.89-47.81h-17.46l.29-3.13h38.64l-.3,3.13h-17.46l-5.89,47.81Z" transform="translate(-246.59 -753.81)"/><path class="cls-1" d="M1353.69,1154.32a24.7,24.7,0,0,0,6.19-4.51l1.53,2a22.33,22.33,0,0,1-6.77,5.09,18.63,18.63,0,0,1-9.1,2.33c-9,0-12.44-5.09-12.44-14.48a28,28,0,0,1,5.6-16.81c3.72-5,8.45-7.57,14-7.57,7.06,0,10.62,2.84,10.62,8.52,0,3-1.45,5.6-5.16,8.22s-11.28,4.66-21.47,5.46c-.07,1.09-.15,1.89-.15,2.54,0,7.57,2.92,11.21,9.61,11.21A15.72,15.72,0,0,0,1353.69,1154.32Zm-11.13-26.19a25.24,25.24,0,0,0-5.46,11.86c6.84-.44,12.37-1.6,16.59-3.42s6.34-4.37,6.34-7.5c0-3.86-2.55-5.82-7.57-5.82A12.49,12.49,0,0,0,1342.56,1128.13Z" transform="translate(-246.59 -753.81)"/><path class="cls-1" d="M1373.41,1144.86c-.36-12.3,7.28-24.52,19.28-24.45a21.57,21.57,0,0,1,9,2.11l-1.24,3a20.16,20.16,0,0,0-8.37-2.12,11.53,11.53,0,0,0-8.15,3.35,20.2,20.2,0,0,0-5.24,8.15,27.86,27.86,0,0,0-1.74,9.68c0,7.79,2.54,11.72,9.24,11.72,3.78,0,8.58-3.35,11.79-7.06l1.6,2.11a22.25,22.25,0,0,1-6.26,5.46,15.27,15.27,0,0,1-8.22,2.47C1377.34,1159.27,1373.41,1154.47,1373.41,1144.86Z" transform="translate(-246.59 -753.81)"/><path class="cls-1" d="M1410.74,1158.4l6.76-54.43,3.64-.88-3.85,31.29h.51a41,41,0,0,1,7.93-10q4.47-3.93,8.73-3.93c5,0,7.42,3.06,7.42,9.24a35.41,35.41,0,0,1-.29,4.08l-3.06,24.67H1435l3-24.24a30.61,30.61,0,0,0,.21-3.34c0-5.46-1.45-7.28-4.87-7.28q-3,0-7,3.71a39.28,39.28,0,0,0-6.84,8.3c-2,3-3,5.53-3.27,7.35l-2,15.5Z" transform="translate(-246.59 -753.81)"/><path class="cls-1" d="M1455,1158.4l3.28-26,.36-10.77,3.57-.88-.8,13.69h.51a40.44,40.44,0,0,1,7.93-10.12c2.91-2.62,5.82-3.93,8.66-3.93,5,0,7.42,3.06,7.42,9.24a35.41,35.41,0,0,1-.29,4.08l-3.06,24.67h-3.49l3-24.24a30.61,30.61,0,0,0,.21-3.34c0-5.46-1.45-7.28-4.87-7.28-2,0-4.3,1.24-6.92,3.71a40.27,40.27,0,0,0-6.76,8.3c-1.89,3-3,5.53-3.2,7.35l-2,15.5Z" transform="translate(-246.59 -753.81)"/><path class="cls-1" d="M1498.7,1144.72c0-6.92,1.68-12.67,5-17.32a15.34,15.34,0,0,1,13.25-7c9,0,13.53,4.8,13.53,14.34,0,6.91-1.6,12.66-4.87,17.39a15.37,15.37,0,0,1-13.18,7.13C1503.29,1159.27,1498.7,1154.39,1498.7,1144.72Zm24.16,5.24a28.38,28.38,0,0,0,3.93-15.07c0-7.78-3.34-11.64-10-11.64-8.8-.07-14.77,10.84-14.55,21.47,0,7.78,3.35,11.71,10.11,11.71C1516.68,1156.43,1520.17,1154.25,1522.86,1150Z" transform="translate(-246.59 -753.81)"/><path class="cls-1" d="M1542.36,1158.4l6.77-54.43,3.64-.88-6.84,55.31Z" transform="translate(-246.59 -753.81)"/><path class="cls-1" d="M1562.59,1144.72c0-6.92,1.67-12.67,5-17.32a15.32,15.32,0,0,1,13.24-7c9,0,13.53,4.8,13.53,14.34,0,6.91-1.6,12.66-4.87,17.39s-7.71,7.13-13.17,7.13C1567.17,1159.27,1562.59,1154.39,1562.59,1144.72Zm24.16,5.24a28.38,28.38,0,0,0,3.93-15.07c0-7.78-3.35-11.64-10-11.64-8.81-.07-14.78,10.84-14.56,21.47,0,7.78,3.35,11.71,10.12,11.71C1580.56,1156.43,1584.05,1154.25,1586.75,1150Z" transform="translate(-246.59 -753.81)"/><path class="cls-1" d="M1612.87,1154.61v-.43c-3.28-.88-4.59-2.19-4.59-4.44,0-2,1.53-3.71,4.66-5.1v-.43c-4.8-2-7.13-5.32-7-9.9a12.53,12.53,0,0,1,5-10.19,18.84,18.84,0,0,1,11.72-3.71,21,21,0,0,1,6.48.95c3.71-2,5.82-5.24,5.82-7.86a5.1,5.1,0,0,0-2.11-4.15l3.13-1.46a6.59,6.59,0,0,1,2.4,5c0,3-2.48,6.84-6.55,9.24v.43a9.21,9.21,0,0,1,4.87,8.37,12.76,12.76,0,0,1-4.87,10.55c-3.27,2.62-7.5,3.93-12.73,3.93a16,16,0,0,1-3.13-.29c-3,1.17-4.44,2.55-4.44,4.15q0,3.06,6.33,3.71c9.53,1.09,15.13,3.86,15.13,10.19a10.69,10.69,0,0,1-4.43,8.66c-3,2.33-7.06,3.49-12.08,3.49-9.61,0-14.34-4-14.34-10.4C1602.17,1160.29,1606.1,1155.78,1612.87,1154.61Zm-7.5,10.12a6.9,6.9,0,0,0,2.91,5.82c1.89,1.45,4.81,2.18,8.66,2.18,10.48,0,12.74-6.18,12.74-9.6,0-2.33-1.24-4.15-3.64-5.46a18.14,18.14,0,0,0-8.37-1.89c-3.71,0-6.62.87-8.88,2.69A7.83,7.83,0,0,0,1605.37,1164.73Zm14-22c8.23.07,14.05-4.44,14.05-11.5,0-5-4.44-8-10.77-8a15.15,15.15,0,0,0-9.39,2.91,9.53,9.53,0,0,0-3.93,8.07C1609.3,1139.33,1613.3,1142.61,1619.34,1142.68Z" transform="translate(-246.59 -753.81)"/><path class="cls-1" d="M1642.11,1173.1l11.57-12.81-7.2-39h3.78l6.12,35.52h.43q16.05-20.21,16.09-35.52h3.71c0,8.66-3.71,18.27-10.41,28-3.42,4.88-6.77,9.32-10,13.24s-7.13,8.23-11.57,12.89Z" transform="translate(-246.59 -753.81)"/><path class="cls-1" d="M809.77,1053.4,930.86,882.9a226.42,226.42,0,0,1,18.44-22.62v-.69a131.62,131.62,0,0,1-18.44,1h-79c-4.87,0-7.66,2.44-7.66,7.66v15.65H812.55V853c0-15.66,6.61-22.27,22.27-22.27H992.45v22.61L871,1024.17a177.32,177.32,0,0,1-18.1,22.27v.7s6.62-.7,18.1-.7h86.64c4.87,0,7.66-2.78,7.66-7.65v-15.66h32v31c0,15.66-6.61,22.27-22.27,22.27H809.77Z" transform="translate(-246.59 -753.81)"/><path class="cls-1" d="M1106.92,896.12c49.41,0,75.85,36.89,75.85,82.47,0,4.52-1,13.92-1,13.92h-128.4c2.09,37.58,29.23,58.8,60.55,58.8,30.27,0,51.5-20.53,51.5-20.53l14.61,24s-26.1,25.75-67.85,25.75c-55.68,0-93.6-40-93.6-92.21C1018.54,932.31,1056.81,896.12,1106.92,896.12ZM1148,967.8c-1-29.23-19.49-44.88-41.41-44.88-25.75,0-46.63,15.65-51.85,44.88Z" transform="translate(-246.59 -753.81)"/><path class="cls-1" d="M1299,896.12c49.41,0,75.85,36.89,75.85,82.47,0,4.52-1,13.92-1,13.92H1245.4c2.09,37.58,29.23,58.8,60.55,58.8,30.27,0,51.49-20.53,51.49-20.53l14.62,24s-26.1,25.75-67.85,25.75c-55.68,0-93.61-40-93.61-92.21C1210.6,932.31,1248.88,896.12,1299,896.12Zm41.06,71.68c-1-29.23-19.49-44.88-41.41-44.88-25.75,0-46.63,15.65-51.85,44.88Z" transform="translate(-246.59 -753.81)"/><path class="cls-2" d="M1419,867.24c0-5.22-2.79-7.65-7.66-7.65H1397.1V830.71h33.41c15.66,0,22.27,6.61,22.27,22.27v186.85c0,5.22,2.78,7.66,7.65,7.66h14.27v28.88h-33.4c-15.66,0-22.27-6.61-22.27-22.27Z" transform="translate(-246.59 -753.81)"/><path class="cls-2" d="M1512.28,867.24c0-5.22-2.79-7.65-7.66-7.65h-14.27V830.71h33.41c15.66,0,22.27,6.61,22.27,22.27v186.85c0,5.22,2.78,7.66,7.65,7.66H1568v28.88h-33.4c-15.66,0-22.27-6.61-22.27-22.27Z" transform="translate(-246.59 -753.81)"/><path class="cls-2" d="M1677.55,896.12c49.41,0,75.86,36.89,75.86,82.47,0,4.52-1.05,13.92-1.05,13.92H1624c2.08,37.58,29.23,58.8,60.54,58.8,30.27,0,51.5-20.53,51.5-20.53l14.61,24s-26.09,25.75-67.85,25.75c-55.67,0-93.6-40-93.6-92.21C1589.17,932.31,1627.45,896.12,1677.55,896.12Zm41.06,71.68c-1-29.23-19.48-44.88-41.41-44.88-25.74,0-46.62,15.65-51.84,44.88Z" transform="translate(-246.59 -753.81)"/><path class="cls-1" d="M542.86,885.06,341.35,1122l-75.48-75.48a65.82,65.82,0,0,1,0-93.09l69.7-69.7v1.3Z" transform="translate(-246.59 -753.81)"/><path class="cls-2" d="M415,1195.72H570.51l-31.19,31.18a65.82,65.82,0,0,1-93.09,0Z" transform="translate(-246.59 -753.81)"/><path class="cls-2" d="M579.1,812.87H406.46l39.77-39.78a65.84,65.84,0,0,1,93.09,0Z" transform="translate(-246.59 -753.81)"/><path class="cls-3" d="M719.69,1046.55l-77,77H445L648.84,882.61l70.85,70.85A65.84,65.84,0,0,1,719.69,1046.55Z" transform="translate(-246.59 -753.81)"/></svg>